<svg width="300" height="300" viewBox="0 0 300 300" fill="none" xmlns="http://www.w3.org/2000/svg">
<rect width="300" height="300" fill="#C88A36"/>
<path d="M7.71558 119.408C7.94759 114.402 8.64498 111.701 10.7439 107.672C10.9885 107.203 11.3199 106.787 11.707 106.425C13.4007 104.842 18.2937 100.054 20.1967 95.8782C24.8441 85.6803 17.5779 78.5586 17.0197 67.3714C16.2931 52.8108 31.1852 36.7764 33.3585 37.9596M33.3585 37.9596C35.174 56.9641 37.4433 59.9053 47.6551 64.8827C57.8669 69.8601 67.2206 68.2696 72.3903 59.9053C74.6164 56.3037 74.8699 51.8929 73.7316 47.7227M33.3585 37.9596C41.5827 34.4781 48.9448 33.1869 57.8669 33.661M33.3585 37.9596C33.2316 30.2595 36.1435 21.6479 43.7973 16.0139C52.7905 9.39386 62.8068 8.91834 72.3903 14.6564M73.7316 47.7227C71.7203 40.3545 65.364 33.7373 57.8669 33.661M73.7316 47.7227C73.6722 47.7834 73.6126 47.8441 73.5526 47.9048C72.813 48.6533 71.8115 49.1023 70.7578 49.1208C60.9122 49.2934 56.4727 43.9891 57.8669 33.661M73.7316 47.7227C84.8211 36.3851 84.374 26.077 72.3903 14.6564M57.8669 33.661C61.6115 24.8541 64.8675 20.5934 72.3903 14.6564M72.3903 14.6564C91.9418 5.37095 101.175 5.37095 120.726 14.6564M119.866 293.213C114.845 292.986 112.135 292.293 108.093 290.204C107.622 289.96 107.205 289.63 106.841 289.245C105.252 287.557 100.445 282.683 96.2549 280.79C86.0222 276.165 78.8853 283.415 67.6647 283.982C53.0607 284.718 36.9649 269.885 38.1498 267.717M38.1498 267.717C57.2103 265.891 60.1584 263.626 65.142 253.441C70.1256 243.255 68.5223 233.931 60.1282 228.784C56.5138 226.568 52.0894 226.319 47.9076 227.458M38.1498 267.717C34.6507 259.521 33.3492 252.182 33.817 243.287M38.1498 267.717C30.4265 267.851 21.7864 264.955 16.1287 257.329C9.48089 248.369 8.99528 238.383 14.7425 228.823M47.9076 227.458C40.5188 229.469 33.8871 235.812 33.817 243.287M47.9076 227.458C47.9685 227.517 48.0295 227.576 48.0904 227.636C48.8418 228.373 49.2931 229.371 49.3125 230.421C49.4941 240.237 44.1777 244.668 33.817 243.287M47.9076 227.458C36.5262 216.411 26.1873 216.866 14.7425 228.823M33.817 243.287C24.9802 239.561 20.7039 236.318 14.7425 228.823M14.7425 228.823C5.41202 209.339 5.40405 200.134 14.7008 180.633M293.19 181.9C292.991 186.908 292.312 189.613 290.241 193.656C289.999 194.127 289.671 194.545 289.286 194.909C287.603 196.504 282.742 201.325 280.868 205.513C276.289 215.742 283.603 222.815 284.237 233.998C285.062 248.553 270.278 264.687 268.097 263.519M268.097 263.519C266.153 244.527 263.864 241.601 253.619 236.692C243.374 231.783 234.031 233.436 228.918 241.835C226.716 245.452 226.492 249.864 227.659 254.026M268.097 263.519C259.896 267.055 252.543 268.396 243.618 267.981M268.097 263.519C268.276 271.218 265.422 279.848 257.806 285.534C248.858 292.214 238.845 292.757 229.223 287.083M227.659 254.026C229.72 261.381 236.12 267.955 243.618 267.981M227.659 254.026C227.718 253.965 227.777 253.904 227.836 253.843C228.571 253.09 229.569 252.634 230.623 252.608C240.467 252.37 244.942 257.644 243.618 267.981M227.659 254.026C216.646 265.438 217.163 275.743 229.223 287.083M243.618 267.981C239.933 276.813 236.706 281.096 229.223 287.083M229.223 287.083C209.735 296.499 200.502 296.561 180.888 287.407M181.997 7.83903C187.018 8.06377 189.728 8.7555 193.772 10.8428C194.243 11.086 194.66 11.4159 195.024 11.8013C196.614 13.4878 201.423 18.3598 205.614 20.2516C215.849 24.8716 222.982 17.6179 234.203 17.0467C248.806 16.3032 264.909 31.1293 263.725 33.2977M263.725 33.2977C244.665 35.1326 241.718 37.3989 236.739 47.5864C231.76 57.7739 233.368 67.0973 241.764 72.2405C245.38 74.4551 249.804 74.702 253.985 73.5617M263.725 33.2977C267.228 41.4924 268.533 48.8306 268.069 57.7264M263.725 33.2977C271.448 33.161 280.09 36.0528 285.751 43.6761C292.403 52.6335 292.893 62.619 287.15 72.1811M253.985 73.5617C261.373 71.5468 268.002 65.201 268.069 57.7264M253.985 73.5617C253.924 73.5026 253.863 73.4432 253.802 73.3834C253.051 72.6471 252.599 71.6492 252.579 70.5987C252.393 60.7831 257.708 56.35 268.069 57.7264M253.985 73.5617C265.372 84.6029 275.71 84.1436 287.15 72.1811M268.069 57.7264C276.907 61.4482 281.185 64.6887 287.15 72.1811M287.15 72.1811C296.489 91.6613 296.501 100.866 287.213 120.371" stroke="white" stroke-width="5" stroke-linecap="round"/>
<path d="M34.7982 153.861C34.9725 153.658 35.1903 153.484 35.4517 153.339C35.7422 153.195 36.0182 153.006 36.2796 152.775C36.541 152.514 36.7589 152.08 36.9331 151.471C37.1365 150.834 37.2381 150.038 37.2381 149.082V131.967C37.2381 131.012 37.1365 130.23 36.9331 129.622C36.7589 128.985 36.541 128.55 36.2796 128.319C36.0182 128.058 35.7422 127.855 35.4517 127.71C35.1903 127.566 34.9579 127.392 34.7546 127.189C34.5803 126.986 34.4932 126.711 34.4932 126.364C34.4932 125.958 34.6675 125.683 35.016 125.538C35.3646 125.394 35.9601 125.321 36.8024 125.321H46.475C49.4088 125.321 52.0085 125.756 54.2741 126.624C56.5688 127.464 58.3697 128.608 59.6769 130.056C60.984 131.504 61.957 133.068 62.5961 134.748C63.2642 136.427 63.5982 138.179 63.5982 140.004C63.5982 142.147 63.2642 144.145 62.5961 145.998C61.957 147.852 61.013 149.517 59.764 150.994C58.515 152.442 56.8448 153.6 54.7534 154.469C52.662 155.309 50.2947 155.729 47.6514 155.729H36.8024C35.9601 155.729 35.3646 155.656 35.016 155.511C34.6675 155.367 34.4932 155.091 34.4932 154.686C34.4932 154.338 34.5949 154.063 34.7982 153.861ZM42.2923 129.405V150.863C42.2923 151.79 42.6118 152.456 43.2508 152.862C43.8899 153.267 45.1825 153.47 47.1286 153.47C51.108 153.47 53.9546 152.442 55.6684 150.386C57.3822 148.329 58.239 145.622 58.239 142.262C58.239 138.005 57.0336 134.487 54.6227 131.707C52.2409 128.898 49.0457 127.493 45.0372 127.493C43.9625 127.493 43.2363 127.624 42.8587 127.884C42.4811 128.116 42.2923 128.623 42.2923 129.405Z" fill="white"/>
<path d="M68.6677 144.478C70.3814 143.175 72.6616 142.523 75.5082 142.523C76.7572 142.523 78.1224 142.668 79.6038 142.957C79.3424 142.002 79.11 141.278 78.9067 140.786C78.7324 140.264 78.4565 139.729 78.0789 139.178C77.7303 138.599 77.2655 138.194 76.6846 137.962C76.1037 137.701 75.392 137.571 74.5497 137.571C72.8649 137.571 70.9914 138.15 68.9291 139.309C68.7258 139.424 68.5224 139.482 68.3191 139.482C68.1448 139.482 67.9851 139.424 67.8398 139.309C67.7236 139.193 67.6655 139.033 67.6655 138.831C67.6655 138.657 67.7382 138.44 67.8834 138.179C68.4934 137.252 69.5681 136.413 71.1076 135.66C72.6471 134.878 74.3609 134.487 76.2489 134.487C77.4979 134.487 78.5872 134.675 79.5167 135.052C80.4462 135.428 81.2014 135.978 81.7823 136.702C82.3633 137.397 82.828 138.136 83.1766 138.918C83.5252 139.671 83.8301 140.554 84.0916 141.567L86.1829 150.386C86.3863 151.283 86.6622 151.906 87.0108 152.253C87.3593 152.572 87.795 152.731 88.3179 152.731C88.376 152.731 88.4341 152.731 88.4922 152.731C88.9279 152.731 89.1457 152.934 89.1457 153.339C89.1457 153.976 88.71 154.585 87.8386 155.164C86.9963 155.743 86.0813 156.033 85.0937 156.033C84.1061 156.033 83.3654 155.772 82.8716 155.251C82.3778 154.7 82.0002 153.861 81.7388 152.731C80.8093 153.832 79.6619 154.671 78.2967 155.251C76.9315 155.83 75.5808 156.119 74.2447 156.119C71.7466 156.119 69.7569 155.511 68.2755 154.295C66.7941 153.05 66.0534 151.486 66.0534 149.604C66.0534 147.519 66.9249 145.81 68.6677 144.478ZM70.8898 148.909C70.9478 150.27 71.4271 151.385 72.3276 152.253C73.228 153.122 74.419 153.557 75.9003 153.557C77.2655 153.557 78.471 153.166 79.5167 152.384C80.5624 151.602 81.0852 150.82 81.0852 150.038C81.0852 149.922 81.0707 149.806 81.0416 149.69C81.0126 149.488 80.7076 148.257 80.1267 145.998C80.0395 145.535 79.5748 145.187 78.7324 144.956C77.9191 144.695 77.0913 144.565 76.2489 144.565C74.5351 144.565 73.2135 144.956 72.284 145.738C71.3545 146.49 70.8898 147.504 70.8898 148.778C70.8898 148.836 70.8898 148.88 70.8898 148.909Z" fill="white"/>
<path d="M91.8658 153.817C92.0691 153.586 92.3015 153.383 92.5629 153.209C92.8534 153.035 93.1003 152.673 93.3036 152.123C93.536 151.544 93.6522 150.791 93.6522 149.864L93.6086 141.567C93.6086 140.814 93.4924 140.192 93.2601 139.7C93.0567 139.178 92.8244 138.845 92.5629 138.7C92.3015 138.527 92.0546 138.338 91.8222 138.136C91.6189 137.904 91.5173 137.643 91.5173 137.354C91.5173 137.122 91.6044 136.919 91.7787 136.746C91.953 136.572 92.3015 136.369 92.8244 136.138C93.6958 135.703 94.6253 135.327 95.6129 135.008C96.6295 134.661 97.3121 134.472 97.6607 134.443C98.2997 134.443 98.6192 134.82 98.6192 135.573L98.5757 141.567V149.864C98.5757 150.791 98.6773 151.544 98.8806 152.123C99.113 152.673 99.3454 153.035 99.5778 153.209C99.8392 153.383 100.072 153.6 100.275 153.861C100.507 154.121 100.623 154.425 100.623 154.773C100.623 155.41 100.028 155.729 98.8371 155.729H93.3908C92.1418 155.729 91.5173 155.395 91.5173 154.729C91.5173 154.382 91.6334 154.078 91.8658 153.817ZM92.2579 129.231C92.287 128.304 92.7227 127.464 93.5651 126.711C94.4074 125.958 95.2643 125.582 96.1357 125.582C96.2519 125.582 96.3536 125.582 96.4407 125.582C97.1088 125.611 97.6607 125.857 98.0964 126.32C98.5611 126.784 98.7935 127.319 98.7935 127.928C98.7935 127.986 98.7935 128.029 98.7935 128.058C98.7645 128.956 98.3142 129.781 97.4428 130.534C96.5714 131.258 95.6855 131.62 94.785 131.62C94.6979 131.62 94.6253 131.62 94.5672 131.62C93.841 131.591 93.2746 131.374 92.8679 130.968C92.4613 130.534 92.2579 130.027 92.2579 129.448C92.2579 129.39 92.2579 129.318 92.2579 129.231Z" fill="white"/>
<path d="M112.961 153.861C113.135 153.658 113.353 153.484 113.615 153.339C113.905 153.195 114.181 153.006 114.442 152.775C114.704 152.514 114.922 152.08 115.096 151.471C115.299 150.834 115.401 150.038 115.401 149.082V132.098C115.401 130.939 115.256 130.013 114.965 129.318C114.704 128.623 114.399 128.188 114.05 128.014C113.731 127.841 113.426 127.624 113.135 127.363C112.874 127.102 112.743 126.769 112.743 126.364C112.743 125.987 112.917 125.727 113.266 125.582C113.615 125.408 114.21 125.321 115.052 125.321H120.891C122.43 125.321 123.2 125.669 123.2 126.364C123.2 126.769 123.055 127.102 122.764 127.363C122.474 127.624 122.154 127.841 121.806 128.014C121.486 128.188 121.181 128.623 120.891 129.318C120.6 130.013 120.455 130.939 120.455 132.098V151.298C120.455 152.08 120.687 152.63 121.152 152.948C121.646 153.238 122.619 153.383 124.071 153.383L126.424 153.339C127.528 153.339 128.414 153.166 129.082 152.818C129.779 152.442 130.302 151.993 130.651 151.471C131.028 150.95 131.464 150.139 131.958 149.039C132.481 147.881 133.032 147.301 133.613 147.301C133.7 147.301 133.773 147.316 133.831 147.345C134.354 147.49 134.615 147.982 134.615 148.822C134.615 148.909 134.615 148.995 134.615 149.082C134.499 151.167 134.267 152.833 133.918 154.078C133.744 154.686 133.425 155.12 132.96 155.381C132.524 155.613 131.653 155.729 130.346 155.729H114.965C114.123 155.729 113.527 155.656 113.179 155.511C112.83 155.367 112.656 155.091 112.656 154.686C112.656 154.338 112.758 154.063 112.961 153.861Z" fill="white"/>
<path d="M139.342 144.478C141.056 143.175 143.336 142.523 146.182 142.523C147.431 142.523 148.797 142.668 150.278 142.957C150.017 142.002 149.784 141.278 149.581 140.786C149.407 140.264 149.131 139.729 148.753 139.178C148.404 138.599 147.94 138.194 147.359 137.962C146.778 137.701 146.066 137.571 145.224 137.571C143.539 137.571 141.666 138.15 139.603 139.309C139.4 139.424 139.197 139.482 138.993 139.482C138.819 139.482 138.659 139.424 138.514 139.309C138.398 139.193 138.34 139.033 138.34 138.831C138.34 138.657 138.412 138.44 138.558 138.179C139.168 137.252 140.242 136.413 141.782 135.66C143.321 134.878 145.035 134.487 146.923 134.487C148.172 134.487 149.261 134.675 150.191 135.052C151.12 135.428 151.876 135.978 152.457 136.702C153.037 137.397 153.502 138.136 153.851 138.918C154.199 139.671 154.504 140.554 154.766 141.567L156.857 150.386C157.06 151.283 157.336 151.906 157.685 152.253C158.034 152.572 158.469 152.731 158.992 152.731C159.05 152.731 159.108 152.731 159.166 152.731C159.602 152.731 159.82 152.934 159.82 153.339C159.82 153.976 159.384 154.585 158.513 155.164C157.67 155.743 156.755 156.033 155.768 156.033C154.78 156.033 154.04 155.772 153.546 155.251C153.052 154.7 152.674 153.861 152.413 152.731C151.483 153.832 150.336 154.671 148.971 155.251C147.606 155.83 146.255 156.119 144.919 156.119C142.421 156.119 140.431 155.511 138.95 154.295C137.468 153.05 136.728 151.486 136.728 149.604C136.728 147.519 137.599 145.81 139.342 144.478ZM141.564 148.909C141.622 150.27 142.101 151.385 143.002 152.253C143.902 153.122 145.093 153.557 146.575 153.557C147.94 153.557 149.145 153.166 150.191 152.384C151.237 151.602 151.759 150.82 151.759 150.038C151.759 149.922 151.745 149.806 151.716 149.69C151.687 149.488 151.382 148.257 150.801 145.998C150.714 145.535 150.249 145.187 149.407 144.956C148.593 144.695 147.765 144.565 146.923 144.565C145.209 144.565 143.888 144.956 142.958 145.738C142.029 146.49 141.564 147.504 141.564 148.778C141.564 148.836 141.564 148.88 141.564 148.909Z" fill="white"/>
<path d="M162.148 137.267C162.148 136.977 162.235 136.746 162.409 136.572C162.584 136.369 162.932 136.152 163.455 135.92C165.401 135.052 166.839 134.588 167.768 134.53C168.378 134.53 168.683 134.907 168.683 135.66L168.64 138.874C169.453 137.426 170.528 136.326 171.864 135.573C173.2 134.82 174.609 134.443 176.09 134.443C178.356 134.443 180.084 135.153 181.275 136.572C182.466 137.991 183.352 140.293 183.933 143.479L185.371 150.994C185.516 151.747 185.778 152.34 186.155 152.775C186.533 153.209 186.867 153.557 187.157 153.817C187.477 154.078 187.637 154.396 187.637 154.773C187.637 155.41 187.041 155.729 185.85 155.729H180.491C179.242 155.729 178.617 155.395 178.617 154.729C178.617 154.44 178.734 154.179 178.966 153.948C179.198 153.687 179.445 153.47 179.707 153.296C179.968 153.122 180.157 152.862 180.273 152.514C180.418 152.167 180.491 151.833 180.491 151.515C180.491 151.283 180.462 151.037 180.404 150.776L179.097 143.739C178.922 142.813 178.748 142.045 178.574 141.437C178.4 140.829 178.138 140.206 177.79 139.569C177.441 138.903 176.976 138.425 176.395 138.136C175.814 137.817 175.117 137.658 174.304 137.658C172.91 137.687 171.704 138.309 170.688 139.526C169.7 140.713 169.206 142.378 169.206 144.521V149.864C169.206 150.791 169.308 151.544 169.511 152.123C169.744 152.673 169.976 153.035 170.208 153.209C170.47 153.383 170.702 153.6 170.905 153.861C171.138 154.121 171.254 154.425 171.254 154.773C171.254 155.41 170.659 155.729 169.468 155.729H163.978C162.758 155.729 162.148 155.395 162.148 154.729C162.148 154.382 162.25 154.092 162.453 153.861C162.685 153.6 162.932 153.383 163.194 153.209C163.484 153.035 163.731 152.673 163.934 152.123C164.167 151.544 164.283 150.791 164.283 149.864V141.35C164.283 139.96 163.833 138.976 162.932 138.396C162.409 138.02 162.148 137.643 162.148 137.267Z" fill="white"/>
<path d="M192.385 137.788C194.592 135.558 197.119 134.443 199.966 134.443C202.028 134.443 203.815 134.965 205.325 136.007V132.011C205.325 131.258 205.209 130.635 204.976 130.143C204.773 129.622 204.526 129.289 204.236 129.144C203.974 128.97 203.727 128.782 203.495 128.579C203.292 128.348 203.19 128.087 203.19 127.797C203.19 127.537 203.277 127.319 203.452 127.146C203.626 126.972 203.974 126.769 204.497 126.538C206.734 125.495 208.36 124.945 209.377 124.887C209.406 124.887 209.45 124.887 209.508 124.887C210.031 124.887 210.292 125.263 210.292 126.016L210.205 149.604C210.205 150.328 210.336 150.921 210.597 151.385C210.858 151.819 211.149 152.094 211.468 152.21C211.817 152.297 212.122 152.427 212.383 152.601C212.645 152.775 212.776 153.006 212.776 153.296C212.776 153.759 212.354 154.223 211.512 154.686C209.711 155.642 208.244 156.119 207.111 156.119C206.037 156.119 205.485 155.323 205.456 153.73L205.412 152.384C203.669 154.903 201.244 156.163 198.136 156.163C198.107 156.163 198.078 156.163 198.049 156.163C195.376 156.134 193.198 155.193 191.513 153.339C189.858 151.486 189.03 149.14 189.03 146.302C189.03 142.856 190.148 140.018 192.385 137.788ZM193.779 143.957C193.779 146.708 194.403 148.88 195.652 150.472C196.901 152.065 198.368 152.862 200.053 152.862C201.534 152.862 202.74 152.355 203.669 151.341C204.599 150.328 205.136 149.111 205.281 147.692V145.39C205.165 143.044 204.788 141.292 204.149 140.134C202.987 137.962 201.317 136.876 199.138 136.876C197.482 136.876 196.175 137.528 195.217 138.831C194.258 140.134 193.779 141.843 193.779 143.957Z" fill="white"/>
<path d="M215.684 153.817C215.887 153.586 216.12 153.383 216.381 153.209C216.671 153.035 216.918 152.673 217.122 152.123C217.354 151.544 217.47 150.791 217.47 149.864L217.427 141.567C217.427 140.814 217.311 140.192 217.078 139.7C216.875 139.178 216.642 138.845 216.381 138.7C216.12 138.527 215.873 138.338 215.64 138.136C215.437 137.904 215.335 137.643 215.335 137.354C215.335 137.122 215.422 136.919 215.597 136.746C215.771 136.572 216.12 136.369 216.642 136.138C217.514 135.703 218.443 135.327 219.431 135.008C220.448 134.661 221.13 134.472 221.479 134.443C222.118 134.443 222.437 134.82 222.437 135.573L222.394 141.567V149.864C222.394 150.791 222.495 151.544 222.699 152.123C222.931 152.673 223.163 153.035 223.396 153.209C223.657 153.383 223.89 153.6 224.093 153.861C224.325 154.121 224.442 154.425 224.442 154.773C224.442 155.41 223.846 155.729 222.655 155.729H217.209C215.96 155.729 215.335 155.395 215.335 154.729C215.335 154.382 215.452 154.078 215.684 153.817ZM216.076 129.231C216.105 128.304 216.541 127.464 217.383 126.711C218.226 125.958 219.082 125.582 219.954 125.582C220.07 125.582 220.172 125.582 220.259 125.582C220.927 125.611 221.479 125.857 221.914 126.32C222.379 126.784 222.612 127.319 222.612 127.928C222.612 127.986 222.612 128.029 222.612 128.058C222.583 128.956 222.132 129.781 221.261 130.534C220.389 131.258 219.504 131.62 218.603 131.62C218.516 131.62 218.443 131.62 218.385 131.62C217.659 131.591 217.093 131.374 216.686 130.968C216.279 130.534 216.076 130.027 216.076 129.448C216.076 129.39 216.076 129.318 216.076 129.231Z" fill="white"/>
<path d="M228.405 153.817C228.608 153.586 228.841 153.383 229.102 153.209C229.393 153.035 229.64 152.673 229.843 152.123C230.075 151.544 230.191 150.791 230.191 149.864V141.35C230.191 139.96 229.741 138.976 228.841 138.396C228.318 138.02 228.057 137.643 228.057 137.267C228.057 136.977 228.144 136.746 228.318 136.572C228.492 136.369 228.841 136.152 229.364 135.92C231.31 135.052 232.748 134.588 233.677 134.53C234.287 134.53 234.592 134.907 234.592 135.66L234.549 139.005C236.291 135.964 238.804 134.443 242.086 134.443C245.601 134.443 247.896 135.978 248.97 139.048C249.784 137.542 250.844 136.398 252.151 135.616C253.458 134.834 254.881 134.443 256.421 134.443C258.716 134.443 260.415 135.138 261.519 136.528C262.651 137.919 263.508 140.235 264.089 143.479L265.527 150.994C265.672 151.747 265.934 152.34 266.311 152.775C266.718 153.209 267.066 153.557 267.357 153.817C267.676 154.078 267.836 154.396 267.836 154.773C267.836 155.41 267.226 155.729 266.006 155.729H260.647C259.427 155.729 258.817 155.395 258.817 154.729C258.817 154.382 258.991 154.078 259.34 153.817C259.718 153.528 260.023 153.195 260.255 152.818C260.516 152.413 260.647 151.978 260.647 151.515C260.647 151.283 260.618 151.037 260.56 150.776L259.253 143.739C259.108 142.9 258.991 142.277 258.904 141.871C258.817 141.466 258.657 140.945 258.425 140.308C258.193 139.642 257.931 139.164 257.641 138.874C257.35 138.556 256.958 138.281 256.464 138.049C255.971 137.788 255.39 137.658 254.722 137.658C253.385 137.687 252.209 138.266 251.192 139.395C250.205 140.525 249.682 142.118 249.624 144.174L249.667 149.864C249.667 150.791 249.769 151.544 249.972 152.123C250.205 152.673 250.437 153.035 250.67 153.209C250.931 153.383 251.163 153.6 251.367 153.861C251.599 154.121 251.715 154.425 251.715 154.773C251.715 155.41 251.12 155.729 249.929 155.729H244.483C243.234 155.729 242.609 155.395 242.609 154.729C242.609 154.382 242.711 154.092 242.914 153.861C243.146 153.6 243.393 153.383 243.655 153.209C243.945 153.035 244.192 152.673 244.395 152.123C244.628 151.544 244.744 150.791 244.744 149.864V144C244.744 141.973 244.439 140.395 243.829 139.265C243.219 138.136 242.144 137.571 240.605 137.571C240.547 137.571 240.503 137.571 240.474 137.571C239.022 137.571 237.758 138.194 236.683 139.439C235.638 140.655 235.115 142.349 235.115 144.521V149.864C235.115 150.791 235.217 151.544 235.42 152.123C235.652 152.673 235.885 153.035 236.117 153.209C236.378 153.383 236.611 153.6 236.814 153.861C237.047 154.121 237.163 154.425 237.163 154.773C237.163 155.41 236.567 155.729 235.376 155.729H229.886C228.667 155.729 228.057 155.395 228.057 154.729C228.057 154.382 228.173 154.078 228.405 153.817Z" fill="white"/>
<path d="M72.6093 170.943C72.6674 170.875 72.74 170.817 72.8272 170.769C72.924 170.721 73.016 170.658 73.1031 170.581C73.1902 170.494 73.2629 170.349 73.321 170.147C73.3887 169.934 73.4226 169.669 73.4226 169.35V163.645C73.4226 163.327 73.3887 163.066 73.321 162.863C73.2629 162.651 73.1902 162.506 73.1031 162.429C73.016 162.342 72.924 162.275 72.8272 162.226C72.74 162.178 72.6626 162.12 72.5948 162.052C72.5367 161.985 72.5076 161.893 72.5076 161.777C72.5076 161.642 72.5657 161.551 72.6819 161.502C72.7981 161.454 72.9966 161.43 73.2774 161.43L78.7818 161.415C79.1981 161.415 79.4741 161.444 79.6096 161.502C79.7452 161.56 79.8468 161.69 79.9146 161.893C80.0695 162.318 80.1954 162.825 80.2922 163.414C80.3019 163.5 80.3067 163.578 80.3067 163.645C80.3067 163.858 80.239 163.988 80.1034 164.036C80.0744 164.046 80.0453 164.051 80.0163 164.051C79.8226 164.051 79.6387 163.896 79.4644 163.587C79.1836 163.114 78.8786 162.767 78.5494 162.545C78.2202 162.323 77.8135 162.212 77.3294 162.212H76.5887C75.9788 162.212 75.5769 162.26 75.3833 162.357C75.1993 162.453 75.1073 162.627 75.1073 162.878V164.485C75.1073 164.784 75.1848 164.977 75.3397 165.064C75.5043 165.151 75.7706 165.195 76.1385 165.195H76.4145C76.7243 165.195 76.976 165.17 77.1697 165.122C77.373 165.074 77.5086 165.021 77.5763 164.963C77.6441 164.895 77.7167 164.837 77.7942 164.789C77.8716 164.741 77.9588 164.717 78.0556 164.717C78.2589 164.717 78.3945 164.866 78.4623 165.166L78.7818 166.599C78.8205 166.782 78.8399 166.922 78.8399 167.019C78.8399 167.067 78.8302 167.12 78.8108 167.178C78.7915 167.236 78.7188 167.284 78.593 167.323C78.5736 167.333 78.5494 167.338 78.5204 167.338C78.4235 167.338 78.3122 167.28 78.1863 167.164C78.0701 167.038 77.9539 166.889 77.8378 166.715C77.7312 166.532 77.5521 166.363 77.3004 166.208C77.0486 166.044 76.7533 165.962 76.4145 165.962H76.1385C75.7706 165.962 75.5043 166.005 75.3397 166.092C75.1848 166.179 75.1073 166.372 75.1073 166.671V170.089C75.1073 170.349 75.2042 170.533 75.3978 170.639C75.5915 170.735 76.003 170.784 76.6323 170.784L77.678 170.769C78.0459 170.769 78.3412 170.711 78.5639 170.595C78.7963 170.47 78.9706 170.32 79.0868 170.147C79.2126 169.973 79.3579 169.703 79.5225 169.336C79.6968 168.95 79.8807 168.757 80.0744 168.757C80.1034 168.757 80.1276 168.761 80.147 168.771C80.3213 168.819 80.4084 168.983 80.4084 169.263C80.4084 169.292 80.4084 169.321 80.4084 169.35C80.3697 170.045 80.2922 170.6 80.176 171.015C80.1179 171.218 80.0114 171.363 79.8565 171.45C79.7113 171.527 79.4208 171.566 78.9851 171.566H73.2774C72.9966 171.566 72.7981 171.541 72.6819 171.493C72.5657 171.445 72.5076 171.353 72.5076 171.218C72.5076 171.102 72.5415 171.011 72.6093 170.943Z" fill="white"/>
<path d="M81.675 169.191C81.7041 169.181 81.7379 169.176 81.7767 169.176C81.9122 169.176 82.0913 169.283 82.314 169.495C83.2532 170.47 84.1343 170.957 84.9573 170.957C85.2575 170.957 85.5044 170.885 85.698 170.74C85.8916 170.595 85.9885 170.393 85.9885 170.132C85.9885 169.871 85.8287 169.635 85.5092 169.423C85.1897 169.21 84.6862 168.959 83.9988 168.67C83.6308 168.515 83.3355 168.385 83.1128 168.279C82.8998 168.163 82.6674 168.018 82.4157 167.844C82.164 167.661 81.98 167.458 81.8638 167.236C81.7476 167.005 81.6895 166.744 81.6895 166.454C81.6895 165.817 81.9267 165.33 82.4012 164.992C82.8756 164.644 83.4227 164.471 84.0423 164.471C84.3522 164.471 84.6862 164.504 85.0444 164.572C85.4124 164.63 85.6399 164.659 85.727 164.659C85.7367 164.659 85.7513 164.659 85.7706 164.659C85.8481 164.659 85.9304 164.63 86.0175 164.572C86.1143 164.504 86.1966 164.471 86.2644 164.471C86.3612 164.471 86.4387 164.509 86.4968 164.586C86.5646 164.654 86.6565 164.789 86.7727 164.992C86.9277 165.281 87.068 165.581 87.1939 165.89C87.2423 166.015 87.2665 166.126 87.2665 166.223C87.2665 166.348 87.2181 166.435 87.1213 166.483C87.0826 166.503 87.0535 166.517 87.0342 166.527C87.0148 166.527 87.0003 166.527 86.9906 166.527C86.9615 166.527 86.9277 166.522 86.8889 166.512C86.8599 166.493 86.826 166.478 86.7873 166.469C86.7582 166.449 86.7146 166.421 86.6565 166.382C86.6081 166.343 86.5646 166.309 86.5258 166.281L86.3516 166.15C86.2741 166.092 86.2112 166.044 86.1628 166.005C85.4172 165.475 84.7685 165.209 84.2166 165.209C83.8874 165.209 83.626 165.286 83.4323 165.441C83.2484 165.586 83.1564 165.769 83.1564 165.991C83.1564 166.252 83.2968 166.478 83.5776 166.671C83.8584 166.865 84.3522 167.106 85.059 167.395C85.911 167.743 86.5452 168.081 86.9615 168.409C87.3779 168.737 87.5861 169.148 87.5861 169.64C87.5861 170.229 87.3295 170.721 86.8163 171.117C86.3128 171.513 85.6738 171.71 84.8992 171.71C84.4926 171.71 84.0956 171.662 83.7083 171.566C83.3307 171.469 83.1225 171.421 83.0838 171.421C83.016 171.421 82.9289 171.469 82.8224 171.566C82.7159 171.662 82.6142 171.71 82.5174 171.71C82.4109 171.71 82.3286 171.677 82.2705 171.609C82.2124 171.541 82.1349 171.397 82.0381 171.175C81.7767 170.47 81.6024 169.963 81.5152 169.654C81.4959 169.587 81.4862 169.529 81.4862 169.481C81.4862 169.326 81.5491 169.23 81.675 169.191Z" fill="white"/>
<path d="M88.6926 165.137C88.7506 165.079 88.8668 165.011 89.0411 164.934C89.6511 164.644 90.1304 164.49 90.4789 164.471C90.4886 164.471 90.5031 164.471 90.5225 164.471C90.6968 164.471 90.7839 164.596 90.7839 164.847L90.7694 165.875C91.3794 164.939 92.2314 164.471 93.3255 164.471C94.1969 164.471 94.9038 164.784 95.446 165.412C95.9979 166.039 96.2738 166.86 96.2738 167.873C96.2738 169.012 95.9591 169.934 95.3298 170.639C94.7101 171.344 93.9646 171.701 93.0932 171.71C93.0738 171.71 93.0593 171.71 93.0496 171.71C92.2944 171.71 91.5972 171.488 90.9582 171.044L90.9727 172.507C90.9727 172.816 91.0066 173.062 91.0744 173.245C91.1519 173.438 91.2293 173.564 91.3068 173.622C91.3939 173.68 91.4714 173.752 91.5392 173.839C91.6166 173.926 91.6553 174.027 91.6553 174.143C91.6553 174.355 91.4569 174.462 91.0599 174.462H89.2299C88.8233 174.462 88.6199 174.355 88.6199 174.143C88.6199 174.027 88.6538 173.926 88.7216 173.839C88.7991 173.752 88.8814 173.68 88.9685 173.622C89.0653 173.564 89.1476 173.438 89.2154 173.245C89.2929 173.062 89.3316 172.816 89.3316 172.507L89.3025 166.729C89.3025 166.276 89.1573 165.952 88.8668 165.759C88.6926 165.634 88.6054 165.508 88.6054 165.383C88.6054 165.286 88.6345 165.204 88.6926 165.137ZM91.6118 170.306C92.0281 170.721 92.4929 170.929 93.006 170.929C93.0157 170.929 93.0254 170.929 93.0351 170.929C93.5773 170.929 93.9839 170.702 94.255 170.248C94.5358 169.794 94.6762 169.239 94.6762 168.583C94.6762 167.656 94.4874 166.918 94.1098 166.367C93.7419 165.808 93.2771 165.528 92.7155 165.528C92.183 165.528 91.757 165.745 91.4375 166.179C91.118 166.604 90.9582 167.096 90.9582 167.656V168.641C90.9679 169.326 91.1857 169.881 91.6118 170.306Z" fill="white"/>
<path d="M98.3453 165.571C99.0618 164.837 99.9429 164.471 100.989 164.471C101.792 164.471 102.451 164.678 102.964 165.093C103.477 165.508 103.796 166.039 103.922 166.686C103.932 166.725 103.937 166.763 103.937 166.802C103.937 167.024 103.821 167.178 103.588 167.265C102.523 167.709 101.027 168.269 99.1005 168.945C99.2651 169.379 99.5411 169.751 99.9284 170.06C100.325 170.369 100.809 170.523 101.381 170.523C102.204 170.523 102.94 170.19 103.588 169.524C103.675 169.437 103.758 169.394 103.835 169.394C103.874 169.394 103.922 169.413 103.98 169.452C104.039 169.49 104.068 169.558 104.068 169.654C104.068 169.703 104.053 169.765 104.024 169.843C103.85 170.296 103.462 170.721 102.862 171.117C102.271 171.513 101.55 171.71 100.698 171.71C99.6815 171.71 98.8536 171.392 98.2146 170.755C97.5853 170.118 97.2706 169.307 97.2706 168.322C97.2706 167.231 97.6288 166.314 98.3453 165.571ZM98.9263 168.221C100.185 167.806 101.158 167.458 101.845 167.178C102.058 167.101 102.165 166.966 102.165 166.773C102.165 166.734 102.16 166.691 102.15 166.643C102.063 166.218 101.865 165.885 101.555 165.643C101.245 165.392 100.926 165.267 100.596 165.267C100.548 165.267 100.5 165.272 100.451 165.281C99.9381 165.31 99.5362 165.528 99.2458 165.933C98.965 166.329 98.8246 166.792 98.8246 167.323C98.8246 167.709 98.8585 168.008 98.9263 168.221Z" fill="white"/>
<path d="M106.061 165.586C106.778 164.852 107.659 164.485 108.705 164.485C109.566 164.485 110.259 164.722 110.781 165.195C111.314 165.668 111.58 166.218 111.58 166.845C111.58 167.135 111.503 167.357 111.348 167.511C111.193 167.666 110.999 167.743 110.767 167.743C110.525 167.743 110.341 167.671 110.215 167.526C110.089 167.381 109.987 167.178 109.91 166.918C109.61 165.836 109.068 165.291 108.283 165.281C107.751 165.281 107.33 165.484 107.02 165.89C106.71 166.285 106.555 166.807 106.555 167.453C106.555 168.37 106.787 169.114 107.252 169.683C107.727 170.243 108.351 170.523 109.126 170.523C109.832 170.523 110.51 170.209 111.159 169.582C111.246 169.495 111.328 169.452 111.406 169.452C111.454 169.452 111.508 169.471 111.566 169.509C111.624 169.538 111.653 169.601 111.653 169.698C111.653 169.756 111.638 169.818 111.609 169.886C111.425 170.359 111.062 170.784 110.52 171.16C109.978 171.527 109.276 171.71 108.414 171.71C107.378 171.71 106.545 171.387 105.916 170.74C105.287 170.084 104.972 169.278 104.972 168.322C104.972 167.231 105.335 166.319 106.061 165.586Z" fill="white"/>
<path d="M112.836 170.929C112.903 170.851 112.981 170.784 113.068 170.726C113.165 170.668 113.247 170.547 113.315 170.364C113.392 170.171 113.431 169.92 113.431 169.611L113.416 166.845C113.416 166.594 113.378 166.387 113.3 166.223C113.232 166.049 113.155 165.938 113.068 165.89C112.981 165.832 112.898 165.769 112.821 165.701C112.753 165.624 112.719 165.537 112.719 165.441C112.719 165.363 112.748 165.296 112.806 165.238C112.865 165.18 112.981 165.113 113.155 165.035C113.446 164.89 113.755 164.765 114.085 164.659C114.423 164.543 114.651 164.48 114.767 164.471C114.98 164.471 115.087 164.596 115.087 164.847L115.072 166.845V169.611C115.072 169.92 115.106 170.171 115.174 170.364C115.251 170.547 115.329 170.668 115.406 170.726C115.493 170.784 115.571 170.856 115.639 170.943C115.716 171.03 115.755 171.131 115.755 171.247C115.755 171.459 115.556 171.566 115.159 171.566H113.344C112.928 171.566 112.719 171.455 112.719 171.233C112.719 171.117 112.758 171.015 112.836 170.929ZM112.966 162.733C112.976 162.424 113.121 162.144 113.402 161.893C113.683 161.642 113.968 161.517 114.259 161.517C114.298 161.517 114.331 161.517 114.36 161.517C114.583 161.526 114.767 161.608 114.912 161.763C115.067 161.917 115.145 162.096 115.145 162.299C115.145 162.318 115.145 162.332 115.145 162.342C115.135 162.641 114.985 162.916 114.695 163.167C114.404 163.409 114.109 163.529 113.809 163.529C113.78 163.529 113.755 163.529 113.736 163.529C113.494 163.52 113.305 163.447 113.17 163.312C113.034 163.167 112.966 162.998 112.966 162.805C112.966 162.786 112.966 162.762 112.966 162.733Z" fill="white"/>
<path d="M117.57 167.815C118.141 167.381 118.901 167.164 119.85 167.164C120.266 167.164 120.721 167.212 121.215 167.309C121.128 166.99 121.05 166.749 120.983 166.585C120.925 166.411 120.833 166.232 120.707 166.049C120.591 165.856 120.436 165.721 120.242 165.643C120.048 165.557 119.811 165.513 119.53 165.513C118.969 165.513 118.344 165.706 117.657 166.092C117.589 166.131 117.521 166.15 117.454 166.15C117.395 166.15 117.342 166.131 117.294 166.092C117.255 166.054 117.236 166.001 117.236 165.933C117.236 165.875 117.26 165.803 117.308 165.716C117.512 165.407 117.87 165.127 118.383 164.876C118.896 164.615 119.467 164.485 120.097 164.485C120.513 164.485 120.876 164.548 121.186 164.673C121.496 164.799 121.748 164.982 121.941 165.224C122.135 165.455 122.29 165.701 122.406 165.962C122.522 166.213 122.624 166.507 122.711 166.845L123.408 169.785C123.476 170.084 123.568 170.291 123.684 170.407C123.8 170.513 123.946 170.567 124.12 170.567C124.139 170.567 124.159 170.567 124.178 170.567C124.323 170.567 124.396 170.634 124.396 170.769C124.396 170.982 124.25 171.184 123.96 171.377C123.679 171.57 123.374 171.667 123.045 171.667C122.716 171.667 122.469 171.58 122.304 171.406C122.14 171.223 122.014 170.943 121.927 170.567C121.617 170.933 121.234 171.213 120.779 171.406C120.324 171.599 119.874 171.696 119.429 171.696C118.596 171.696 117.933 171.493 117.439 171.088C116.945 170.673 116.698 170.151 116.698 169.524C116.698 168.829 116.989 168.259 117.57 167.815ZM118.31 169.292C118.33 169.746 118.49 170.118 118.79 170.407C119.09 170.697 119.487 170.842 119.981 170.842C120.436 170.842 120.837 170.711 121.186 170.451C121.535 170.19 121.709 169.929 121.709 169.669C121.709 169.63 121.704 169.592 121.694 169.553C121.685 169.485 121.583 169.075 121.389 168.322C121.36 168.168 121.205 168.052 120.925 167.975C120.654 167.888 120.378 167.844 120.097 167.844C119.526 167.844 119.085 167.975 118.775 168.235C118.465 168.486 118.31 168.824 118.31 169.249C118.31 169.268 118.31 169.283 118.31 169.292Z" fill="white"/>
<path d="M125.217 170.929C125.284 170.851 125.362 170.784 125.449 170.726C125.546 170.668 125.628 170.547 125.696 170.364C125.773 170.171 125.812 169.92 125.812 169.611L125.798 163.66C125.798 163.399 125.759 163.187 125.681 163.023C125.614 162.859 125.536 162.752 125.449 162.704C125.362 162.646 125.28 162.583 125.202 162.516C125.134 162.439 125.1 162.352 125.1 162.255C125.1 162.168 125.13 162.096 125.188 162.038C125.246 161.98 125.362 161.913 125.536 161.835C126.282 161.488 126.819 161.304 127.148 161.285C127.158 161.285 127.172 161.285 127.192 161.285C127.279 161.285 127.347 161.314 127.395 161.372C127.444 161.43 127.468 161.526 127.468 161.662L127.453 163.66V169.611C127.453 169.92 127.487 170.171 127.555 170.364C127.632 170.547 127.71 170.668 127.787 170.726C127.874 170.784 127.952 170.856 128.02 170.943C128.097 171.03 128.136 171.131 128.136 171.247C128.136 171.459 127.937 171.566 127.54 171.566H125.71C125.304 171.566 125.1 171.455 125.1 171.233C125.1 171.117 125.139 171.015 125.217 170.929Z" fill="white"/>
<path d="M129.472 170.929C129.54 170.851 129.617 170.784 129.705 170.726C129.801 170.668 129.884 170.547 129.952 170.364C130.029 170.171 130.068 169.92 130.068 169.611L130.053 166.845C130.053 166.594 130.014 166.387 129.937 166.223C129.869 166.049 129.792 165.938 129.705 165.89C129.617 165.832 129.535 165.769 129.458 165.701C129.39 165.624 129.356 165.537 129.356 165.441C129.356 165.363 129.385 165.296 129.443 165.238C129.501 165.18 129.617 165.113 129.792 165.035C130.082 164.89 130.392 164.765 130.721 164.659C131.06 164.543 131.288 164.48 131.404 164.471C131.617 164.471 131.723 164.596 131.723 164.847L131.709 166.845V169.611C131.709 169.92 131.743 170.171 131.811 170.364C131.888 170.547 131.965 170.668 132.043 170.726C132.13 170.784 132.207 170.856 132.275 170.943C132.353 171.03 132.391 171.131 132.391 171.247C132.391 171.459 132.193 171.566 131.796 171.566H129.981C129.564 171.566 129.356 171.455 129.356 171.233C129.356 171.117 129.395 171.015 129.472 170.929ZM129.603 162.733C129.613 162.424 129.758 162.144 130.039 161.893C130.319 161.642 130.605 161.517 130.896 161.517C130.934 161.517 130.968 161.517 130.997 161.517C131.22 161.526 131.404 161.608 131.549 161.763C131.704 161.917 131.781 162.096 131.781 162.299C131.781 162.318 131.781 162.332 131.781 162.342C131.772 162.641 131.622 162.916 131.331 163.167C131.041 163.409 130.745 163.529 130.445 163.529C130.416 163.529 130.392 163.529 130.373 163.529C130.131 163.52 129.942 163.447 129.806 163.312C129.671 163.167 129.603 162.998 129.603 162.805C129.603 162.786 129.603 162.762 129.603 162.733Z" fill="white"/>
<path d="M133.713 169.191C133.742 169.181 133.776 169.176 133.814 169.176C133.95 169.176 134.129 169.283 134.352 169.495C135.291 170.47 136.172 170.957 136.995 170.957C137.295 170.957 137.542 170.885 137.736 170.74C137.929 170.595 138.026 170.393 138.026 170.132C138.026 169.871 137.866 169.635 137.547 169.423C137.227 169.21 136.724 168.959 136.036 168.67C135.668 168.515 135.373 168.385 135.15 168.279C134.937 168.163 134.705 168.018 134.453 167.844C134.202 167.661 134.018 167.458 133.901 167.236C133.785 167.005 133.727 166.744 133.727 166.454C133.727 165.817 133.964 165.33 134.439 164.992C134.913 164.644 135.46 164.471 136.08 164.471C136.39 164.471 136.724 164.504 137.082 164.572C137.45 164.63 137.678 164.659 137.765 164.659C137.774 164.659 137.789 164.659 137.808 164.659C137.886 164.659 137.968 164.63 138.055 164.572C138.152 164.504 138.234 164.471 138.302 164.471C138.399 164.471 138.476 164.509 138.534 164.586C138.602 164.654 138.694 164.789 138.81 164.992C138.965 165.281 139.106 165.581 139.232 165.89C139.28 166.015 139.304 166.126 139.304 166.223C139.304 166.348 139.256 166.435 139.159 166.483C139.12 166.503 139.091 166.517 139.072 166.527C139.052 166.527 139.038 166.527 139.028 166.527C138.999 166.527 138.965 166.522 138.927 166.512C138.898 166.493 138.864 166.478 138.825 166.469C138.796 166.449 138.752 166.421 138.694 166.382C138.646 166.343 138.602 166.309 138.563 166.281L138.389 166.15C138.312 166.092 138.249 166.044 138.2 166.005C137.455 165.475 136.806 165.209 136.254 165.209C135.925 165.209 135.664 165.286 135.47 165.441C135.286 165.586 135.194 165.769 135.194 165.991C135.194 166.252 135.334 166.478 135.615 166.671C135.896 166.865 136.39 167.106 137.097 167.395C137.949 167.743 138.583 168.081 138.999 168.409C139.416 168.737 139.624 169.148 139.624 169.64C139.624 170.229 139.367 170.721 138.854 171.117C138.35 171.513 137.711 171.71 136.937 171.71C136.53 171.71 136.133 171.662 135.746 171.566C135.368 171.469 135.16 171.421 135.121 171.421C135.054 171.421 134.966 171.469 134.86 171.566C134.753 171.662 134.652 171.71 134.555 171.71C134.448 171.71 134.366 171.677 134.308 171.609C134.25 171.541 134.173 171.397 134.076 171.175C133.814 170.47 133.64 169.963 133.553 169.654C133.534 169.587 133.524 169.529 133.524 169.481C133.524 169.326 133.587 169.23 133.713 169.191Z" fill="white"/>
<path d="M140.353 165.079C140.353 164.934 140.411 164.799 140.527 164.673C141.03 164.133 141.597 163.65 142.226 163.225C142.4 163.109 142.555 163.052 142.691 163.052C142.865 163.052 142.952 163.153 142.952 163.356C142.952 163.385 142.952 163.409 142.952 163.428C142.933 163.708 142.914 164.104 142.894 164.615H144.347C144.443 164.615 144.521 164.625 144.579 164.644C144.637 164.654 144.681 164.688 144.71 164.746C144.739 164.794 144.753 164.852 144.753 164.919C144.753 164.958 144.748 165.002 144.739 165.05C144.681 165.339 144.501 165.484 144.201 165.484C144.182 165.484 144.163 165.484 144.143 165.484L142.88 165.441C142.88 165.643 142.875 166.126 142.865 166.889C142.855 167.651 142.846 168.337 142.836 168.945C142.836 168.983 142.836 169.022 142.836 169.061C142.836 169.582 142.894 169.958 143.01 170.19C143.136 170.422 143.378 170.538 143.737 170.538C144.095 170.538 144.453 170.388 144.811 170.089C144.879 170.031 144.947 170.002 145.015 170.002C145.053 170.002 145.097 170.021 145.145 170.06C145.203 170.098 145.232 170.156 145.232 170.233C145.232 170.272 145.223 170.316 145.203 170.364C145.068 170.702 144.816 171.011 144.448 171.29C144.09 171.57 143.649 171.71 143.127 171.71C142.507 171.71 142.032 171.527 141.703 171.16C141.384 170.784 141.224 170.243 141.224 169.538V168.945C141.224 167.313 141.243 166.131 141.282 165.397H140.803C140.503 165.397 140.353 165.291 140.353 165.079Z" fill="white"/>
<path d="M146.744 167.815C147.316 167.381 148.076 167.164 149.024 167.164C149.441 167.164 149.896 167.212 150.39 167.309C150.303 166.99 150.225 166.749 150.157 166.585C150.099 166.411 150.007 166.232 149.881 166.049C149.765 165.856 149.61 165.721 149.417 165.643C149.223 165.557 148.986 165.513 148.705 165.513C148.143 165.513 147.519 165.706 146.831 166.092C146.764 166.131 146.696 166.15 146.628 166.15C146.57 166.15 146.517 166.131 146.468 166.092C146.43 166.054 146.41 166.001 146.41 165.933C146.41 165.875 146.434 165.803 146.483 165.716C146.686 165.407 147.044 165.127 147.558 164.876C148.071 164.615 148.642 164.485 149.271 164.485C149.688 164.485 150.051 164.548 150.361 164.673C150.67 164.799 150.922 164.982 151.116 165.224C151.309 165.455 151.464 165.701 151.581 165.962C151.697 166.213 151.798 166.507 151.886 166.845L152.583 169.785C152.65 170.084 152.742 170.291 152.859 170.407C152.975 170.513 153.12 170.567 153.294 170.567C153.314 170.567 153.333 170.567 153.352 170.567C153.498 170.567 153.57 170.634 153.57 170.769C153.57 170.982 153.425 171.184 153.135 171.377C152.854 171.57 152.549 171.667 152.22 171.667C151.89 171.667 151.644 171.58 151.479 171.406C151.314 171.223 151.188 170.943 151.101 170.567C150.791 170.933 150.409 171.213 149.954 171.406C149.499 171.599 149.049 171.696 148.603 171.696C147.771 171.696 147.107 171.493 146.614 171.088C146.12 170.673 145.873 170.151 145.873 169.524C145.873 168.829 146.163 168.259 146.744 167.815ZM147.485 169.292C147.504 169.746 147.664 170.118 147.964 170.407C148.264 170.697 148.661 170.842 149.155 170.842C149.61 170.842 150.012 170.711 150.361 170.451C150.709 170.19 150.883 169.929 150.883 169.669C150.883 169.63 150.879 169.592 150.869 169.553C150.859 169.485 150.758 169.075 150.564 168.322C150.535 168.168 150.38 168.052 150.099 167.975C149.828 167.888 149.552 167.844 149.271 167.844C148.7 167.844 148.26 167.975 147.95 168.235C147.64 168.486 147.485 168.824 147.485 169.249C147.485 169.268 147.485 169.283 147.485 169.292Z" fill="white"/>
<path d="M158.141 165.571C158.858 164.837 159.739 164.471 160.784 164.471C161.588 164.471 162.246 164.678 162.76 165.093C163.273 165.508 163.592 166.039 163.718 166.686C163.728 166.725 163.733 166.763 163.733 166.802C163.733 167.024 163.616 167.178 163.384 167.265C162.319 167.709 160.823 168.269 158.896 168.945C159.061 169.379 159.337 169.751 159.724 170.06C160.121 170.369 160.605 170.523 161.176 170.523C161.999 170.523 162.735 170.19 163.384 169.524C163.471 169.437 163.553 169.394 163.631 169.394C163.67 169.394 163.718 169.413 163.776 169.452C163.834 169.49 163.863 169.558 163.863 169.654C163.863 169.703 163.849 169.765 163.82 169.843C163.645 170.296 163.258 170.721 162.658 171.117C162.067 171.513 161.346 171.71 160.494 171.71C159.477 171.71 158.649 171.392 158.01 170.755C157.381 170.118 157.066 169.307 157.066 168.322C157.066 167.231 157.425 166.314 158.141 165.571ZM158.722 168.221C159.981 167.806 160.954 167.458 161.641 167.178C161.854 167.101 161.961 166.966 161.961 166.773C161.961 166.734 161.956 166.691 161.946 166.643C161.859 166.218 161.661 165.885 161.351 165.643C161.041 165.392 160.721 165.267 160.392 165.267C160.344 165.267 160.295 165.272 160.247 165.281C159.734 165.31 159.332 165.528 159.042 165.933C158.761 166.329 158.62 166.792 158.62 167.323C158.62 167.709 158.654 168.008 158.722 168.221Z" fill="white"/>
<path d="M165.015 170.929C165.082 170.851 165.16 170.784 165.247 170.726C165.344 170.668 165.426 170.547 165.494 170.364C165.571 170.171 165.61 169.92 165.61 169.611V166.773C165.61 166.309 165.46 165.981 165.16 165.788C164.986 165.663 164.898 165.537 164.898 165.412C164.898 165.315 164.928 165.238 164.986 165.18C165.044 165.113 165.16 165.04 165.334 164.963C165.983 164.673 166.462 164.519 166.772 164.5C166.975 164.5 167.077 164.625 167.077 164.876L167.062 165.991C167.643 164.977 168.481 164.471 169.575 164.471C170.747 164.471 171.511 164.982 171.87 166.005C172.141 165.503 172.494 165.122 172.93 164.862C173.366 164.601 173.84 164.471 174.353 164.471C175.118 164.471 175.685 164.702 176.052 165.166C176.43 165.629 176.716 166.401 176.909 167.482L177.389 169.987C177.437 170.238 177.524 170.436 177.65 170.581C177.786 170.726 177.902 170.842 177.999 170.929C178.105 171.015 178.158 171.122 178.158 171.247C178.158 171.459 177.955 171.566 177.548 171.566H175.762C175.355 171.566 175.152 171.455 175.152 171.233C175.152 171.117 175.21 171.015 175.326 170.929C175.452 170.832 175.554 170.721 175.631 170.595C175.718 170.46 175.762 170.316 175.762 170.161C175.762 170.084 175.752 170.002 175.733 169.915L175.297 167.569C175.249 167.289 175.21 167.082 175.181 166.947C175.152 166.811 175.099 166.638 175.021 166.425C174.944 166.203 174.857 166.044 174.76 165.948C174.663 165.841 174.532 165.75 174.368 165.672C174.203 165.586 174.01 165.542 173.787 165.542C173.341 165.552 172.949 165.745 172.61 166.121C172.281 166.498 172.107 167.029 172.088 167.714L172.102 169.611C172.102 169.92 172.136 170.171 172.204 170.364C172.281 170.547 172.359 170.668 172.436 170.726C172.523 170.784 172.601 170.856 172.669 170.943C172.746 171.03 172.785 171.131 172.785 171.247C172.785 171.459 172.586 171.566 172.189 171.566H170.374C169.957 171.566 169.749 171.455 169.749 171.233C169.749 171.117 169.783 171.02 169.851 170.943C169.928 170.856 170.011 170.784 170.098 170.726C170.195 170.668 170.277 170.547 170.345 170.364C170.422 170.171 170.461 169.92 170.461 169.611V167.656C170.461 166.98 170.359 166.454 170.156 166.078C169.953 165.701 169.594 165.513 169.081 165.513C169.062 165.513 169.047 165.513 169.038 165.513C168.554 165.513 168.132 165.721 167.774 166.136C167.426 166.541 167.251 167.106 167.251 167.83V169.611C167.251 169.92 167.285 170.171 167.353 170.364C167.43 170.547 167.508 170.668 167.585 170.726C167.672 170.784 167.75 170.856 167.818 170.943C167.895 171.03 167.934 171.131 167.934 171.247C167.934 171.459 167.735 171.566 167.338 171.566H165.508C165.102 171.566 164.898 171.455 164.898 171.233C164.898 171.117 164.937 171.015 165.015 170.929Z" fill="white"/>
<path d="M182.749 165.586C183.466 164.852 184.347 164.485 185.392 164.485C186.254 164.485 186.946 164.722 187.469 165.195C188.002 165.668 188.268 166.218 188.268 166.845C188.268 167.135 188.19 167.357 188.036 167.511C187.881 167.666 187.687 167.743 187.455 167.743C187.213 167.743 187.029 167.671 186.903 167.526C186.777 167.381 186.675 167.178 186.598 166.918C186.298 165.836 185.755 165.291 184.971 165.281C184.439 165.281 184.017 165.484 183.708 165.89C183.398 166.285 183.243 166.807 183.243 167.453C183.243 168.37 183.475 169.114 183.94 169.683C184.414 170.243 185.039 170.523 185.813 170.523C186.52 170.523 187.198 170.209 187.847 169.582C187.934 169.495 188.016 169.452 188.094 169.452C188.142 169.452 188.195 169.471 188.253 169.509C188.312 169.538 188.341 169.601 188.341 169.698C188.341 169.756 188.326 169.818 188.297 169.886C188.113 170.359 187.75 170.784 187.208 171.16C186.666 171.527 185.964 171.71 185.102 171.71C184.066 171.71 183.233 171.387 182.604 170.74C181.974 170.084 181.66 169.278 181.66 168.322C181.66 167.231 182.023 166.319 182.749 165.586Z" fill="white"/>
<path d="M190.003 167.815C190.574 167.381 191.334 167.164 192.283 167.164C192.699 167.164 193.154 167.212 193.648 167.309C193.561 166.99 193.483 166.749 193.416 166.585C193.357 166.411 193.266 166.232 193.14 166.049C193.023 165.856 192.869 165.721 192.675 165.643C192.481 165.557 192.244 165.513 191.963 165.513C191.402 165.513 190.777 165.706 190.09 166.092C190.022 166.131 189.954 166.15 189.886 166.15C189.828 166.15 189.775 166.131 189.727 166.092C189.688 166.054 189.669 166.001 189.669 165.933C189.669 165.875 189.693 165.803 189.741 165.716C189.944 165.407 190.303 165.127 190.816 164.876C191.329 164.615 191.9 164.485 192.53 164.485C192.946 164.485 193.309 164.548 193.619 164.673C193.929 164.799 194.18 164.982 194.374 165.224C194.568 165.455 194.723 165.701 194.839 165.962C194.955 166.213 195.057 166.507 195.144 166.845L195.841 169.785C195.909 170.084 196.001 170.291 196.117 170.407C196.233 170.513 196.378 170.567 196.553 170.567C196.572 170.567 196.591 170.567 196.611 170.567C196.756 170.567 196.829 170.634 196.829 170.769C196.829 170.982 196.683 171.184 196.393 171.377C196.112 171.57 195.807 171.667 195.478 171.667C195.149 171.667 194.902 171.58 194.737 171.406C194.573 171.223 194.447 170.943 194.36 170.567C194.05 170.933 193.667 171.213 193.212 171.406C192.757 171.599 192.307 171.696 191.862 171.696C191.029 171.696 190.366 171.493 189.872 171.088C189.378 170.673 189.131 170.151 189.131 169.524C189.131 168.829 189.422 168.259 190.003 167.815ZM190.743 169.292C190.763 169.746 190.922 170.118 191.223 170.407C191.523 170.697 191.92 170.842 192.413 170.842C192.869 170.842 193.27 170.711 193.619 170.451C193.967 170.19 194.142 169.929 194.142 169.669C194.142 169.63 194.137 169.592 194.127 169.553C194.118 169.485 194.016 169.075 193.822 168.322C193.793 168.168 193.638 168.052 193.358 167.975C193.086 167.888 192.81 167.844 192.53 167.844C191.958 167.844 191.518 167.975 191.208 168.235C190.898 168.486 190.743 168.824 190.743 169.249C190.743 169.268 190.743 169.283 190.743 169.292Z" fill="white"/>
<path d="M198.365 165.586C199.081 164.852 199.962 164.485 201.008 164.485C201.87 164.485 202.562 164.722 203.085 165.195C203.617 165.668 203.883 166.218 203.883 166.845C203.883 167.135 203.806 167.357 203.651 167.511C203.496 167.666 203.303 167.743 203.07 167.743C202.828 167.743 202.644 167.671 202.518 167.526C202.392 167.381 202.291 167.178 202.213 166.918C201.913 165.836 201.371 165.291 200.587 165.281C200.054 165.281 199.633 165.484 199.323 165.89C199.013 166.285 198.858 166.807 198.858 167.453C198.858 168.37 199.091 169.114 199.555 169.683C200.03 170.243 200.654 170.523 201.429 170.523C202.136 170.523 202.814 170.209 203.462 169.582C203.549 169.495 203.632 169.452 203.709 169.452C203.758 169.452 203.811 169.471 203.869 169.509C203.927 169.538 203.956 169.601 203.956 169.698C203.956 169.756 203.942 169.818 203.913 169.886C203.729 170.359 203.365 170.784 202.823 171.16C202.281 171.527 201.579 171.71 200.717 171.71C199.681 171.71 198.849 171.387 198.219 170.74C197.59 170.084 197.275 169.278 197.275 168.322C197.275 167.231 197.638 166.319 198.365 165.586Z" fill="white"/>
<path d="M204.797 162.038C204.855 161.98 204.971 161.913 205.146 161.835C205.891 161.488 206.429 161.304 206.758 161.285C206.767 161.285 206.782 161.285 206.801 161.285C206.888 161.285 206.956 161.314 207.005 161.372C207.053 161.43 207.077 161.526 207.077 161.662L207.063 163.66V165.658C207.634 164.866 208.399 164.471 209.357 164.471C210.113 164.471 210.689 164.707 211.086 165.18C211.483 165.653 211.778 166.421 211.972 167.482L212.451 169.987C212.499 170.238 212.587 170.436 212.712 170.581C212.838 170.726 212.95 170.842 213.046 170.929C213.153 171.015 213.206 171.122 213.206 171.247C213.206 171.459 213.008 171.566 212.611 171.566H210.824C210.408 171.566 210.2 171.455 210.2 171.233C210.2 171.136 210.239 171.049 210.316 170.972C210.393 170.885 210.476 170.813 210.563 170.755C210.65 170.697 210.713 170.61 210.752 170.494C210.8 170.378 210.824 170.267 210.824 170.161C210.824 170.084 210.815 170.002 210.795 169.915L210.36 167.569C210.301 167.26 210.243 167.005 210.185 166.802C210.127 166.599 210.04 166.392 209.924 166.179C209.808 165.957 209.653 165.798 209.459 165.701C209.265 165.595 209.033 165.542 208.762 165.542C208.297 165.552 207.895 165.759 207.557 166.165C207.227 166.56 207.063 167.116 207.063 167.83V169.611C207.063 169.92 207.097 170.171 207.164 170.364C207.242 170.547 207.319 170.668 207.397 170.726C207.484 170.784 207.561 170.856 207.629 170.943C207.707 171.03 207.745 171.131 207.745 171.247C207.745 171.459 207.547 171.566 207.15 171.566H205.32C204.913 171.566 204.71 171.455 204.71 171.233C204.71 171.117 204.744 171.02 204.812 170.943C204.889 170.856 204.971 170.784 205.059 170.726C205.155 170.668 205.238 170.547 205.305 170.364C205.383 170.171 205.422 169.92 205.422 169.611L205.407 163.66C205.407 163.399 205.368 163.187 205.291 163.023C205.223 162.859 205.146 162.752 205.059 162.704C204.971 162.646 204.889 162.583 204.812 162.516C204.744 162.439 204.71 162.352 204.71 162.255C204.71 162.168 204.739 162.096 204.797 162.038Z" fill="white"/>
<path d="M214.789 165.586C215.525 164.842 216.459 164.471 217.592 164.471C218.56 164.471 219.359 164.799 219.989 165.455C220.628 166.112 220.947 166.927 220.947 167.902C220.947 168.993 220.584 169.9 219.858 170.624C219.132 171.348 218.207 171.71 217.084 171.71C216.096 171.71 215.278 171.406 214.629 170.798C213.99 170.18 213.671 169.365 213.671 168.351C213.671 167.251 214.044 166.329 214.789 165.586ZM215.966 169.9C216.401 170.557 216.953 170.885 217.621 170.885C218.164 170.885 218.585 170.687 218.885 170.291C219.185 169.896 219.335 169.384 219.335 168.757C219.335 167.859 219.112 167.062 218.667 166.367C218.222 165.663 217.67 165.31 217.011 165.31C216.459 165.31 216.033 165.523 215.733 165.948C215.443 166.372 215.298 166.903 215.298 167.54C215.298 168.457 215.52 169.244 215.966 169.9Z" fill="white"/>
<path d="M222.215 169.191C222.244 169.181 222.278 169.176 222.317 169.176C222.452 169.176 222.631 169.283 222.854 169.495C223.793 170.47 224.674 170.957 225.497 170.957C225.797 170.957 226.044 170.885 226.238 170.74C226.432 170.595 226.528 170.393 226.528 170.132C226.528 169.871 226.369 169.635 226.049 169.423C225.73 169.21 225.226 168.959 224.539 168.67C224.171 168.515 223.875 168.385 223.653 168.279C223.44 168.163 223.207 168.018 222.956 167.844C222.704 167.661 222.52 167.458 222.404 167.236C222.288 167.005 222.229 166.744 222.229 166.454C222.229 165.817 222.467 165.33 222.941 164.992C223.416 164.644 223.963 164.471 224.582 164.471C224.892 164.471 225.226 164.504 225.584 164.572C225.952 164.63 226.18 164.659 226.267 164.659C226.277 164.659 226.291 164.659 226.311 164.659C226.388 164.659 226.47 164.63 226.557 164.572C226.654 164.504 226.737 164.471 226.804 164.471C226.901 164.471 226.979 164.509 227.037 164.586C227.104 164.654 227.196 164.789 227.313 164.992C227.468 165.281 227.608 165.581 227.734 165.89C227.782 166.015 227.806 166.126 227.806 166.223C227.806 166.348 227.758 166.435 227.661 166.483C227.622 166.503 227.593 166.517 227.574 166.527C227.555 166.527 227.54 166.527 227.53 166.527C227.501 166.527 227.468 166.522 227.429 166.512C227.4 166.493 227.366 166.478 227.327 166.469C227.298 166.449 227.255 166.421 227.196 166.382C227.148 166.343 227.104 166.309 227.066 166.281L226.891 166.15C226.814 166.092 226.751 166.044 226.703 166.005C225.957 165.475 225.308 165.209 224.757 165.209C224.427 165.209 224.166 165.286 223.972 165.441C223.788 165.586 223.696 165.769 223.696 165.991C223.696 166.252 223.837 166.478 224.117 166.671C224.398 166.865 224.892 167.106 225.599 167.395C226.451 167.743 227.085 168.081 227.501 168.409C227.918 168.737 228.126 169.148 228.126 169.64C228.126 170.229 227.869 170.721 227.356 171.117C226.853 171.513 226.214 171.71 225.439 171.71C225.032 171.71 224.635 171.662 224.248 171.566C223.871 171.469 223.662 171.421 223.624 171.421C223.556 171.421 223.469 171.469 223.362 171.566C223.256 171.662 223.154 171.71 223.057 171.71C222.951 171.71 222.868 171.677 222.81 171.609C222.752 171.541 222.675 171.397 222.578 171.175C222.317 170.47 222.142 169.963 222.055 169.654C222.036 169.587 222.026 169.529 222.026 169.481C222.026 169.326 222.089 169.23 222.215 169.191Z" fill="white"/>
</svg>
