<svg width="300" height="300" viewBox="0 0 300 300" fill="none" xmlns="http://www.w3.org/2000/svg">
<rect width="300" height="300" fill="#C88A36"/>
<path d="M15 119.394C15.2195 114.537 15.8793 111.917 17.865 108.008C18.0963 107.552 18.4099 107.149 18.7761 106.798C20.3784 105.262 25.0075 100.616 26.8079 96.5643C31.2046 86.6696 24.3303 79.7597 23.8022 68.905C23.1149 54.7773 37.2036 39.2195 39.2598 40.3675M39.2598 40.3675C40.9773 58.8071 43.1242 61.6608 52.7851 66.4903C62.4461 71.3197 71.2953 69.7765 76.1862 61.6608C78.2922 58.1663 78.532 53.8866 77.4551 49.8404M39.2598 40.3675C47.0403 36.9895 54.0053 35.7367 62.4461 36.1967M39.2598 40.3675C39.1397 32.8963 41.8946 24.5407 49.1354 19.0742C57.6436 12.651 67.1196 12.1896 76.1862 17.7571M77.4551 49.8404C75.5523 42.6912 69.5389 36.2707 62.4461 36.1967M77.4551 49.8404C77.3989 49.8993 77.3425 49.9582 77.2857 50.0171C76.5861 50.7433 75.6386 51.179 74.6417 51.1969C65.3272 51.3644 61.1272 46.2178 62.4461 36.1967M77.4551 49.8404C87.9464 38.8398 87.5235 28.8382 76.1862 17.7571M62.4461 36.1967C65.9888 27.6516 69.0691 23.5176 76.1862 17.7571M76.1862 17.7571C94.683 8.74763 103.418 8.74763 121.915 17.7571M121.101 288.033C116.351 287.812 113.787 287.14 109.963 285.113C109.517 284.877 109.123 284.557 108.779 284.182C107.275 282.545 102.727 277.816 98.7635 275.979C89.0828 271.492 82.3308 278.527 71.7154 279.076C57.8992 279.791 42.6716 265.399 43.7926 263.295M43.7926 263.295C61.8249 261.523 64.614 259.326 69.3288 249.443C74.0436 239.56 72.5268 230.514 64.5855 225.52C61.166 223.369 56.9803 223.128 53.0241 224.232M43.7926 263.295C40.4823 255.343 39.2509 248.222 39.6935 239.591M43.7926 263.295C36.4859 263.424 28.3118 260.615 22.9593 253.216C16.6701 244.522 16.2107 234.833 21.6479 225.557M53.0241 224.232C46.0339 226.184 39.7598 232.338 39.6935 239.591M53.0241 224.232C53.0817 224.29 53.1393 224.347 53.197 224.405C53.9079 225.12 54.3348 226.089 54.3532 227.108C54.525 236.632 49.4953 240.931 39.6935 239.591M53.0241 224.232C42.2565 213.514 32.4753 213.956 21.6479 225.557M39.6935 239.591C31.3334 235.976 27.2877 232.83 21.6479 225.557M21.6479 225.557C12.8207 206.652 12.8132 197.721 21.6084 178.8M285.075 180.029C284.888 184.888 284.245 187.513 282.285 191.436C282.057 191.893 281.746 192.298 281.382 192.651C279.79 194.198 275.192 198.876 273.418 202.94C269.087 212.865 276.006 219.727 276.606 230.578C277.386 244.701 263.4 260.355 261.336 259.221M261.336 259.221C259.497 240.794 257.332 237.955 247.639 233.192C237.947 228.429 229.108 230.033 224.27 238.182C222.187 241.691 221.976 245.973 223.079 250.011M261.336 259.221C253.578 262.653 246.621 263.953 238.178 263.551M261.336 259.221C261.505 266.691 258.805 275.066 251.601 280.582C243.135 287.064 233.662 287.59 224.559 282.085M223.079 250.011C225.029 257.147 231.085 263.526 238.178 263.551M223.079 250.011C223.135 249.952 223.191 249.893 223.248 249.833C223.942 249.102 224.887 248.66 225.884 248.635C235.197 248.404 239.431 253.521 238.178 263.551M223.079 250.011C212.661 261.084 213.149 271.082 224.559 282.085M238.178 263.551C234.691 272.121 231.638 276.276 224.559 282.085M224.559 282.085C206.122 291.222 197.387 291.282 178.832 282.4M179.881 11.1423C184.631 11.3604 187.195 12.0316 191.02 14.0568C191.466 14.2928 191.861 14.6128 192.205 14.9868C193.709 16.6232 198.259 21.3504 202.224 23.1859C211.906 27.6686 218.655 20.6306 229.27 20.0763C243.086 19.3549 258.32 33.7403 257.2 35.8442M257.2 35.8442C239.169 37.6245 236.381 39.8235 231.67 49.7081C226.96 59.5928 228.48 68.639 236.424 73.6293C239.844 75.7782 244.03 76.0177 247.986 74.9112M257.2 35.8442C260.514 43.7953 261.749 50.9153 261.31 59.5467M257.2 35.8442C264.507 35.7115 272.682 38.5174 278.038 45.9141C284.331 54.6052 284.795 64.2938 279.362 73.5717M247.986 74.9112C254.975 72.9562 261.247 66.7991 261.31 59.5467M247.986 74.9112C247.928 74.8539 247.871 74.7963 247.813 74.7383C247.102 74.0239 246.674 73.0556 246.656 72.0364C246.48 62.5125 251.507 58.2113 261.31 59.5467M247.986 74.9112C258.758 85.6242 268.539 85.1786 279.362 73.5717M261.31 59.5467C269.671 63.1578 273.718 66.3021 279.362 73.5717M279.362 73.5717C288.197 92.4729 288.208 101.404 279.422 120.329" stroke="white" stroke-width="3" stroke-linecap="round"/>
<path d="M22.5015 159.936C22.6935 159.712 22.9335 159.52 23.2215 159.36C23.5415 159.2 23.8455 158.992 24.1335 158.736C24.4215 158.448 24.6615 157.968 24.8535 157.296C25.0775 156.592 25.1895 155.712 25.1895 154.656V135.744C25.1895 134.688 25.0775 133.824 24.8535 133.152C24.6615 132.448 24.4215 131.968 24.1335 131.712C23.8455 131.424 23.5415 131.2 23.2215 131.04C22.9335 130.88 22.6775 130.688 22.4535 130.464C22.2615 130.24 22.1655 129.936 22.1655 129.552C22.1655 129.104 22.3575 128.8 22.7415 128.64C23.1255 128.48 23.7815 128.4 24.7095 128.4H35.3655C38.5975 128.4 41.4615 128.88 43.9575 129.84C46.4855 130.768 48.4695 132.032 49.9095 133.632C51.3495 135.232 52.4215 136.96 53.1255 138.816C53.8615 140.672 54.2295 142.608 54.2295 144.624C54.2295 146.992 53.8615 149.2 53.1255 151.248C52.4215 153.296 51.3815 155.136 50.0055 156.768C48.6295 158.368 46.7895 159.648 44.4855 160.608C42.1815 161.536 39.5735 162 36.6615 162H24.7095C23.7815 162 23.1255 161.92 22.7415 161.76C22.3575 161.6 22.1655 161.296 22.1655 160.848C22.1655 160.464 22.2775 160.16 22.5015 159.936ZM30.7575 132.912V156.624C30.7575 157.648 31.1095 158.384 31.8135 158.832C32.5175 159.28 33.9415 159.504 36.0855 159.504C40.4695 159.504 43.6055 158.368 45.4935 156.096C47.3815 153.824 48.3255 150.832 48.3255 147.12C48.3255 142.416 46.9975 138.528 44.3415 135.456C41.7175 132.352 38.1975 130.8 33.7815 130.8C32.5975 130.8 31.7975 130.944 31.3815 131.232C30.9655 131.488 30.7575 132.048 30.7575 132.912ZM59.8144 149.568C61.7024 148.128 64.2144 147.408 67.3504 147.408C68.7264 147.408 70.2304 147.568 71.8624 147.888C71.5744 146.832 71.3184 146.032 71.0944 145.488C70.9024 144.912 70.5984 144.32 70.1824 143.712C69.7984 143.072 69.2864 142.624 68.6464 142.368C68.0064 142.08 67.2224 141.936 66.2944 141.936C64.4384 141.936 62.3744 142.576 60.1024 143.856C59.8784 143.984 59.6544 144.048 59.4304 144.048C59.2384 144.048 59.0624 143.984 58.9024 143.856C58.7744 143.728 58.7104 143.552 58.7104 143.328C58.7104 143.136 58.7904 142.896 58.9504 142.608C59.6224 141.584 60.8064 140.656 62.5024 139.824C64.1984 138.96 66.0864 138.528 68.1664 138.528C69.5424 138.528 70.7424 138.736 71.7664 139.152C72.7904 139.568 73.6224 140.176 74.2624 140.976C74.9024 141.744 75.4144 142.56 75.7984 143.424C76.1824 144.256 76.5184 145.232 76.8064 146.352L79.1104 156.096C79.3344 157.088 79.6384 157.776 80.0224 158.16C80.4064 158.512 80.8864 158.688 81.4624 158.688C81.5264 158.688 81.5904 158.688 81.6544 158.688C82.1344 158.688 82.3744 158.912 82.3744 159.36C82.3744 160.064 81.8944 160.736 80.9344 161.376C80.0064 162.016 78.9984 162.336 77.9104 162.336C76.8224 162.336 76.0064 162.048 75.4624 161.472C74.9184 160.864 74.5024 159.936 74.2144 158.688C73.1904 159.904 71.9264 160.832 70.4224 161.472C68.9184 162.112 67.4304 162.432 65.9584 162.432C63.2064 162.432 61.0144 161.76 59.3824 160.416C57.7504 159.04 56.9344 157.312 56.9344 155.232C56.9344 152.928 57.8944 151.04 59.8144 149.568ZM62.2624 154.464C62.3264 155.968 62.8544 157.2 63.8464 158.16C64.8384 159.12 66.1504 159.6 67.7824 159.6C69.2864 159.6 70.6144 159.168 71.7664 158.304C72.9184 157.44 73.4944 156.576 73.4944 155.712C73.4944 155.584 73.4784 155.456 73.4464 155.328C73.4144 155.104 73.0784 153.744 72.4384 151.248C72.3424 150.736 71.8304 150.352 70.9024 150.096C70.0064 149.808 69.0944 149.664 68.1664 149.664C66.2784 149.664 64.8224 150.096 63.7984 150.96C62.7744 151.792 62.2624 152.912 62.2624 154.32C62.2624 154.384 62.2624 154.432 62.2624 154.464ZM85.371 159.888C85.595 159.632 85.851 159.408 86.139 159.216C86.459 159.024 86.731 158.624 86.955 158.016C87.211 157.376 87.339 156.544 87.339 155.52L87.291 146.352C87.291 145.52 87.163 144.832 86.907 144.288C86.683 143.712 86.427 143.344 86.139 143.184C85.851 142.992 85.579 142.784 85.323 142.56C85.099 142.304 84.987 142.016 84.987 141.696C84.987 141.44 85.083 141.216 85.275 141.024C85.467 140.832 85.851 140.608 86.427 140.352C87.387 139.872 88.411 139.456 89.499 139.104C90.619 138.72 91.371 138.512 91.755 138.48C92.459 138.48 92.811 138.896 92.811 139.728L92.763 146.352V155.52C92.763 156.544 92.875 157.376 93.099 158.016C93.355 158.624 93.611 159.024 93.867 159.216C94.155 159.408 94.411 159.648 94.635 159.936C94.891 160.224 95.019 160.56 95.019 160.944C95.019 161.648 94.363 162 93.051 162H87.051C85.675 162 84.987 161.632 84.987 160.896C84.987 160.512 85.115 160.176 85.371 159.888ZM85.803 132.72C85.835 131.696 86.315 130.768 87.243 129.936C88.171 129.104 89.115 128.688 90.075 128.688C90.203 128.688 90.315 128.688 90.411 128.688C91.147 128.72 91.755 128.992 92.235 129.504C92.747 130.016 93.003 130.608 93.003 131.28C93.003 131.344 93.003 131.392 93.003 131.424C92.971 132.416 92.475 133.328 91.515 134.16C90.555 134.96 89.579 135.36 88.587 135.36C88.491 135.36 88.411 135.36 88.347 135.36C87.547 135.328 86.923 135.088 86.475 134.64C86.027 134.16 85.803 133.6 85.803 132.96C85.803 132.896 85.803 132.816 85.803 132.72ZM108.611 159.936C108.803 159.712 109.043 159.52 109.331 159.36C109.651 159.2 109.955 158.992 110.243 158.736C110.531 158.448 110.771 157.968 110.963 157.296C111.187 156.592 111.299 155.712 111.299 154.656V135.888C111.299 134.608 111.139 133.584 110.819 132.816C110.531 132.048 110.195 131.568 109.811 131.376C109.459 131.184 109.123 130.944 108.803 130.656C108.515 130.368 108.371 130 108.371 129.552C108.371 129.136 108.563 128.848 108.947 128.688C109.331 128.496 109.987 128.4 110.915 128.4H117.347C119.043 128.4 119.891 128.784 119.891 129.552C119.891 130 119.731 130.368 119.411 130.656C119.091 130.944 118.739 131.184 118.355 131.376C118.003 131.568 117.667 132.048 117.347 132.816C117.027 133.584 116.867 134.608 116.867 135.888V157.104C116.867 157.968 117.123 158.576 117.635 158.928C118.179 159.248 119.251 159.408 120.851 159.408L123.443 159.36C124.659 159.36 125.635 159.168 126.371 158.784C127.139 158.368 127.715 157.872 128.099 157.296C128.515 156.72 128.995 155.824 129.539 154.608C130.115 153.328 130.723 152.688 131.363 152.688C131.459 152.688 131.539 152.704 131.603 152.736C132.179 152.896 132.467 153.44 132.467 154.368C132.467 154.464 132.467 154.56 132.467 154.656C132.339 156.96 132.083 158.8 131.699 160.176C131.507 160.848 131.155 161.328 130.643 161.616C130.163 161.872 129.203 162 127.763 162H110.819C109.891 162 109.235 161.92 108.851 161.76C108.467 161.6 108.275 161.296 108.275 160.848C108.275 160.464 108.387 160.16 108.611 159.936ZM137.674 149.568C139.562 148.128 142.074 147.408 145.21 147.408C146.586 147.408 148.09 147.568 149.722 147.888C149.434 146.832 149.178 146.032 148.954 145.488C148.762 144.912 148.458 144.32 148.042 143.712C147.658 143.072 147.146 142.624 146.506 142.368C145.866 142.08 145.082 141.936 144.154 141.936C142.298 141.936 140.234 142.576 137.962 143.856C137.738 143.984 137.514 144.048 137.29 144.048C137.098 144.048 136.922 143.984 136.762 143.856C136.634 143.728 136.57 143.552 136.57 143.328C136.57 143.136 136.65 142.896 136.81 142.608C137.482 141.584 138.666 140.656 140.362 139.824C142.058 138.96 143.946 138.528 146.026 138.528C147.402 138.528 148.602 138.736 149.626 139.152C150.65 139.568 151.482 140.176 152.122 140.976C152.762 141.744 153.274 142.56 153.658 143.424C154.042 144.256 154.378 145.232 154.666 146.352L156.97 156.096C157.194 157.088 157.498 157.776 157.882 158.16C158.266 158.512 158.746 158.688 159.322 158.688C159.386 158.688 159.45 158.688 159.514 158.688C159.994 158.688 160.234 158.912 160.234 159.36C160.234 160.064 159.754 160.736 158.794 161.376C157.866 162.016 156.858 162.336 155.77 162.336C154.682 162.336 153.866 162.048 153.322 161.472C152.778 160.864 152.362 159.936 152.074 158.688C151.05 159.904 149.786 160.832 148.282 161.472C146.778 162.112 145.29 162.432 143.818 162.432C141.066 162.432 138.874 161.76 137.242 160.416C135.61 159.04 134.794 157.312 134.794 155.232C134.794 152.928 135.754 151.04 137.674 149.568ZM140.122 154.464C140.186 155.968 140.714 157.2 141.706 158.16C142.698 159.12 144.01 159.6 145.642 159.6C147.146 159.6 148.474 159.168 149.626 158.304C150.778 157.44 151.354 156.576 151.354 155.712C151.354 155.584 151.338 155.456 151.306 155.328C151.274 155.104 150.938 153.744 150.298 151.248C150.202 150.736 149.69 150.352 148.762 150.096C147.866 149.808 146.954 149.664 146.026 149.664C144.138 149.664 142.682 150.096 141.658 150.96C140.634 151.792 140.122 152.912 140.122 154.32C140.122 154.384 140.122 154.432 140.122 154.464ZM162.798 141.6C162.798 141.28 162.894 141.024 163.086 140.832C163.278 140.608 163.662 140.368 164.238 140.112C166.382 139.152 167.966 138.64 168.99 138.576C169.662 138.576 169.998 138.992 169.998 139.824L169.95 143.376C170.846 141.776 172.03 140.56 173.502 139.728C174.974 138.896 176.526 138.48 178.158 138.48C180.654 138.48 182.558 139.264 183.87 140.832C185.182 142.4 186.158 144.944 186.798 148.464L188.382 156.768C188.542 157.6 188.83 158.256 189.246 158.736C189.662 159.216 190.03 159.6 190.35 159.888C190.702 160.176 190.878 160.528 190.878 160.944C190.878 161.648 190.222 162 188.91 162H183.006C181.63 162 180.942 161.632 180.942 160.896C180.942 160.576 181.07 160.288 181.326 160.032C181.582 159.744 181.854 159.504 182.142 159.312C182.43 159.12 182.638 158.832 182.766 158.448C182.926 158.064 183.006 157.696 183.006 157.344C183.006 157.088 182.974 156.816 182.91 156.528L181.47 148.752C181.278 147.728 181.086 146.88 180.894 146.208C180.702 145.536 180.414 144.848 180.03 144.144C179.646 143.408 179.134 142.88 178.494 142.56C177.854 142.208 177.086 142.032 176.19 142.032C174.654 142.064 173.326 142.752 172.206 144.096C171.118 145.408 170.574 147.248 170.574 149.616V155.52C170.574 156.544 170.686 157.376 170.91 158.016C171.166 158.624 171.422 159.024 171.678 159.216C171.966 159.408 172.222 159.648 172.446 159.936C172.702 160.224 172.83 160.56 172.83 160.944C172.83 161.648 172.174 162 170.862 162H164.814C163.47 162 162.798 161.632 162.798 160.896C162.798 160.512 162.91 160.192 163.134 159.936C163.39 159.648 163.662 159.408 163.95 159.216C164.27 159.024 164.542 158.624 164.766 158.016C165.022 157.376 165.15 156.544 165.15 155.52V146.112C165.15 144.576 164.654 143.488 163.662 142.848C163.086 142.432 162.798 142.016 162.798 141.6ZM196.109 142.176C198.541 139.712 201.325 138.48 204.461 138.48C206.733 138.48 208.701 139.056 210.365 140.208V135.792C210.365 134.96 210.237 134.272 209.981 133.728C209.757 133.152 209.485 132.784 209.165 132.624C208.877 132.432 208.605 132.224 208.349 132C208.125 131.744 208.013 131.456 208.013 131.136C208.013 130.848 208.109 130.608 208.301 130.416C208.493 130.224 208.877 130 209.453 129.744C211.917 128.592 213.709 127.984 214.829 127.92C214.861 127.92 214.909 127.92 214.973 127.92C215.549 127.92 215.837 128.336 215.837 129.168L215.741 155.232C215.741 156.032 215.885 156.688 216.173 157.2C216.461 157.68 216.781 157.984 217.133 158.112C217.517 158.208 217.853 158.352 218.141 158.544C218.429 158.736 218.573 158.992 218.573 159.312C218.573 159.824 218.109 160.336 217.181 160.848C215.197 161.904 213.581 162.432 212.333 162.432C211.149 162.432 210.541 161.552 210.509 159.792L210.461 158.304C208.541 161.088 205.869 162.48 202.445 162.48C202.413 162.48 202.381 162.48 202.349 162.48C199.405 162.448 197.005 161.408 195.149 159.36C193.325 157.312 192.413 154.72 192.413 151.584C192.413 147.776 193.645 144.64 196.109 142.176ZM197.645 148.992C197.645 152.032 198.333 154.432 199.709 156.192C201.085 157.952 202.701 158.832 204.557 158.832C206.189 158.832 207.517 158.272 208.541 157.152C209.565 156.032 210.157 154.688 210.317 153.12V150.576C210.189 147.984 209.773 146.048 209.069 144.768C207.789 142.368 205.949 141.168 203.549 141.168C201.725 141.168 200.285 141.888 199.229 143.328C198.173 144.768 197.645 146.656 197.645 148.992ZM221.777 159.888C222.001 159.632 222.257 159.408 222.545 159.216C222.865 159.024 223.137 158.624 223.361 158.016C223.617 157.376 223.745 156.544 223.745 155.52L223.697 146.352C223.697 145.52 223.569 144.832 223.313 144.288C223.089 143.712 222.833 143.344 222.545 143.184C222.257 142.992 221.985 142.784 221.729 142.56C221.505 142.304 221.393 142.016 221.393 141.696C221.393 141.44 221.489 141.216 221.681 141.024C221.873 140.832 222.257 140.608 222.833 140.352C223.793 139.872 224.817 139.456 225.905 139.104C227.025 138.72 227.777 138.512 228.161 138.48C228.865 138.48 229.217 138.896 229.217 139.728L229.169 146.352V155.52C229.169 156.544 229.281 157.376 229.505 158.016C229.761 158.624 230.017 159.024 230.273 159.216C230.561 159.408 230.817 159.648 231.041 159.936C231.297 160.224 231.425 160.56 231.425 160.944C231.425 161.648 230.769 162 229.457 162H223.457C222.081 162 221.393 161.632 221.393 160.896C221.393 160.512 221.521 160.176 221.777 159.888ZM222.209 132.72C222.241 131.696 222.721 130.768 223.649 129.936C224.577 129.104 225.521 128.688 226.481 128.688C226.609 128.688 226.721 128.688 226.817 128.688C227.553 128.72 228.161 128.992 228.641 129.504C229.153 130.016 229.409 130.608 229.409 131.28C229.409 131.344 229.409 131.392 229.409 131.424C229.377 132.416 228.881 133.328 227.921 134.16C226.961 134.96 225.985 135.36 224.993 135.36C224.897 135.36 224.817 135.36 224.753 135.36C223.953 135.328 223.329 135.088 222.881 134.64C222.433 134.16 222.209 133.6 222.209 132.96C222.209 132.896 222.209 132.816 222.209 132.72ZM235.792 159.888C236.016 159.632 236.272 159.408 236.56 159.216C236.88 159.024 237.152 158.624 237.376 158.016C237.632 157.376 237.76 156.544 237.76 155.52V146.112C237.76 144.576 237.264 143.488 236.272 142.848C235.696 142.432 235.408 142.016 235.408 141.6C235.408 141.28 235.504 141.024 235.696 140.832C235.888 140.608 236.272 140.368 236.848 140.112C238.992 139.152 240.576 138.64 241.6 138.576C242.272 138.576 242.608 138.992 242.608 139.824L242.56 143.52C244.48 140.16 247.248 138.48 250.864 138.48C254.736 138.48 257.264 140.176 258.448 143.568C259.344 141.904 260.512 140.64 261.952 139.776C263.392 138.912 264.96 138.48 266.656 138.48C269.184 138.48 271.056 139.248 272.272 140.784C273.52 142.32 274.464 144.88 275.104 148.464L276.688 156.768C276.848 157.6 277.136 158.256 277.552 158.736C278 159.216 278.384 159.6 278.704 159.888C279.056 160.176 279.232 160.528 279.232 160.944C279.232 161.648 278.56 162 277.216 162H271.312C269.968 162 269.296 161.632 269.296 160.896C269.296 160.512 269.488 160.176 269.872 159.888C270.288 159.568 270.624 159.2 270.88 158.784C271.168 158.336 271.312 157.856 271.312 157.344C271.312 157.088 271.28 156.816 271.216 156.528L269.776 148.752C269.616 147.824 269.488 147.136 269.392 146.688C269.296 146.24 269.12 145.664 268.864 144.96C268.608 144.224 268.32 143.696 268 143.376C267.68 143.024 267.248 142.72 266.704 142.464C266.16 142.176 265.52 142.032 264.784 142.032C263.312 142.064 262.016 142.704 260.896 143.952C259.808 145.2 259.232 146.96 259.168 149.232L259.216 155.52C259.216 156.544 259.328 157.376 259.552 158.016C259.808 158.624 260.064 159.024 260.32 159.216C260.608 159.408 260.864 159.648 261.088 159.936C261.344 160.224 261.472 160.56 261.472 160.944C261.472 161.648 260.816 162 259.504 162H253.504C252.128 162 251.44 161.632 251.44 160.896C251.44 160.512 251.552 160.192 251.776 159.936C252.032 159.648 252.304 159.408 252.592 159.216C252.912 159.024 253.184 158.624 253.408 158.016C253.664 157.376 253.792 156.544 253.792 155.52V149.04C253.792 146.8 253.456 145.056 252.784 143.808C252.112 142.56 250.928 141.936 249.232 141.936C249.168 141.936 249.12 141.936 249.088 141.936C247.488 141.936 246.096 142.624 244.912 144C243.76 145.344 243.184 147.216 243.184 149.616V155.52C243.184 156.544 243.296 157.376 243.52 158.016C243.776 158.624 244.032 159.024 244.288 159.216C244.576 159.408 244.832 159.648 245.056 159.936C245.312 160.224 245.44 160.56 245.44 160.944C245.44 161.648 244.784 162 243.472 162H237.424C236.08 162 235.408 161.632 235.408 160.896C235.408 160.512 235.536 160.176 235.792 159.888Z" fill="white"/>
<path d="M43.0084 181.14C43.0884 181.047 43.1884 180.967 43.3084 180.9C43.4418 180.833 43.5684 180.747 43.6884 180.64C43.8084 180.52 43.9084 180.32 43.9884 180.04C44.0818 179.747 44.1284 179.38 44.1284 178.94V171.06C44.1284 170.62 44.0818 170.26 43.9884 169.98C43.9084 169.687 43.8084 169.487 43.6884 169.38C43.5684 169.26 43.4418 169.167 43.3084 169.1C43.1884 169.033 43.0818 168.953 42.9884 168.86C42.9084 168.767 42.8684 168.64 42.8684 168.48C42.8684 168.293 42.9484 168.167 43.1084 168.1C43.2684 168.033 43.5418 168 43.9284 168L51.5084 167.98C52.0818 167.98 52.4618 168.02 52.6484 168.1C52.8351 168.18 52.9751 168.36 53.0684 168.64C53.2818 169.227 53.4551 169.927 53.5884 170.74C53.6018 170.86 53.6084 170.967 53.6084 171.06C53.6084 171.353 53.5151 171.533 53.3284 171.6C53.2884 171.613 53.2484 171.62 53.2084 171.62C52.9418 171.62 52.6884 171.407 52.4484 170.98C52.0618 170.327 51.6418 169.847 51.1884 169.54C50.7351 169.233 50.1751 169.08 49.5084 169.08H48.4884C47.6484 169.08 47.0951 169.147 46.8284 169.28C46.5751 169.413 46.4484 169.653 46.4484 170V172.22C46.4484 172.633 46.5551 172.9 46.7684 173.02C46.9951 173.14 47.3618 173.2 47.8684 173.2H48.2484C48.6751 173.2 49.0218 173.167 49.2884 173.1C49.5684 173.033 49.7551 172.96 49.8484 172.88C49.9418 172.787 50.0418 172.707 50.1484 172.64C50.2551 172.573 50.3751 172.54 50.5084 172.54C50.7884 172.54 50.9751 172.747 51.0684 173.16L51.5084 175.14C51.5618 175.393 51.5884 175.587 51.5884 175.72C51.5884 175.787 51.5751 175.86 51.5484 175.94C51.5218 176.02 51.4218 176.087 51.2484 176.14C51.2218 176.153 51.1884 176.16 51.1484 176.16C51.0151 176.16 50.8618 176.08 50.6884 175.92C50.5284 175.747 50.3684 175.54 50.2084 175.3C50.0618 175.047 49.8151 174.813 49.4684 174.6C49.1218 174.373 48.7151 174.26 48.2484 174.26H47.8684C47.3618 174.26 46.9951 174.32 46.7684 174.44C46.5551 174.56 46.4484 174.827 46.4484 175.24V179.96C46.4484 180.32 46.5818 180.573 46.8484 180.72C47.1151 180.853 47.6818 180.92 48.5484 180.92L49.9884 180.9C50.4951 180.9 50.9018 180.82 51.2084 180.66C51.5284 180.487 51.7684 180.28 51.9284 180.04C52.1018 179.8 52.3018 179.427 52.5284 178.92C52.7684 178.387 53.0218 178.12 53.2884 178.12C53.3284 178.12 53.3618 178.127 53.3884 178.14C53.6284 178.207 53.7484 178.433 53.7484 178.82C53.7484 178.86 53.7484 178.9 53.7484 178.94C53.6951 179.9 53.5884 180.667 53.4284 181.24C53.3484 181.52 53.2018 181.72 52.9884 181.84C52.7884 181.947 52.3884 182 51.7884 182H43.9284C43.5418 182 43.2684 181.967 43.1084 181.9C42.9484 181.833 42.8684 181.707 42.8684 181.52C42.8684 181.36 42.9151 181.233 43.0084 181.14ZM55.4927 178.72C55.5327 178.707 55.5793 178.7 55.6327 178.7C55.8193 178.7 56.066 178.847 56.3727 179.14C57.666 180.487 58.8793 181.16 60.0127 181.16C60.426 181.16 60.766 181.06 61.0327 180.86C61.2993 180.66 61.4327 180.38 61.4327 180.02C61.4327 179.66 61.2127 179.333 60.7727 179.04C60.3327 178.747 59.6393 178.4 58.6927 178C58.186 177.787 57.7793 177.607 57.4727 177.46C57.1793 177.3 56.8593 177.1 56.5127 176.86C56.166 176.607 55.9127 176.327 55.7527 176.02C55.5927 175.7 55.5127 175.34 55.5127 174.94C55.5127 174.06 55.8393 173.387 56.4927 172.92C57.146 172.44 57.8993 172.2 58.7527 172.2C59.1793 172.2 59.6393 172.247 60.1327 172.34C60.6393 172.42 60.9527 172.46 61.0727 172.46C61.086 172.46 61.106 172.46 61.1327 172.46C61.2393 172.46 61.3527 172.42 61.4727 172.34C61.606 172.247 61.7193 172.2 61.8127 172.2C61.946 172.2 62.0527 172.253 62.1327 172.36C62.226 172.453 62.3527 172.64 62.5127 172.92C62.726 173.32 62.9193 173.733 63.0927 174.16C63.1593 174.333 63.1927 174.487 63.1927 174.62C63.1927 174.793 63.126 174.913 62.9927 174.98C62.9393 175.007 62.8993 175.027 62.8727 175.04C62.846 175.04 62.826 175.04 62.8127 175.04C62.7727 175.04 62.726 175.033 62.6727 175.02C62.6327 174.993 62.586 174.973 62.5327 174.96C62.4927 174.933 62.4327 174.893 62.3527 174.84C62.286 174.787 62.226 174.74 62.1727 174.7L61.9327 174.52C61.826 174.44 61.7393 174.373 61.6727 174.32C60.646 173.587 59.7527 173.22 58.9927 173.22C58.5393 173.22 58.1793 173.327 57.9127 173.54C57.6593 173.74 57.5327 173.993 57.5327 174.3C57.5327 174.66 57.726 174.973 58.1127 175.24C58.4993 175.507 59.1793 175.84 60.1527 176.24C61.326 176.72 62.1993 177.187 62.7727 177.64C63.346 178.093 63.6327 178.66 63.6327 179.34C63.6327 180.153 63.2793 180.833 62.5727 181.38C61.8793 181.927 60.9993 182.2 59.9327 182.2C59.3727 182.2 58.826 182.133 58.2927 182C57.7727 181.867 57.486 181.8 57.4327 181.8C57.3393 181.8 57.2193 181.867 57.0727 182C56.926 182.133 56.786 182.2 56.6527 182.2C56.506 182.2 56.3927 182.153 56.3127 182.06C56.2327 181.967 56.126 181.767 55.9927 181.46C55.6327 180.487 55.3927 179.787 55.2727 179.36C55.246 179.267 55.2327 179.187 55.2327 179.12C55.2327 178.907 55.3193 178.773 55.4927 178.72ZM65.1564 173.12C65.2364 173.04 65.3964 172.947 65.6364 172.84C66.4764 172.44 67.1364 172.227 67.6164 172.2C67.6297 172.2 67.6497 172.2 67.6764 172.2C67.9164 172.2 68.0364 172.373 68.0364 172.72L68.0164 174.14C68.8564 172.847 70.0297 172.2 71.5364 172.2C72.7364 172.2 73.7097 172.633 74.4564 173.5C75.2164 174.367 75.5964 175.5 75.5964 176.9C75.5964 178.473 75.1631 179.747 74.2964 180.72C73.4431 181.693 72.4164 182.187 71.2164 182.2C71.1897 182.2 71.1697 182.2 71.1564 182.2C70.1164 182.2 69.1564 181.893 68.2764 181.28L68.2964 183.3C68.2964 183.727 68.3431 184.067 68.4364 184.32C68.5431 184.587 68.6497 184.76 68.7564 184.84C68.8764 184.92 68.9831 185.02 69.0764 185.14C69.1831 185.26 69.2364 185.4 69.2364 185.56C69.2364 185.853 68.9631 186 68.4164 186H65.8964C65.3364 186 65.0564 185.853 65.0564 185.56C65.0564 185.4 65.1031 185.26 65.1964 185.14C65.3031 185.02 65.4164 184.92 65.5364 184.84C65.6697 184.76 65.7831 184.587 65.8764 184.32C65.9831 184.067 66.0364 183.727 66.0364 183.3L65.9964 175.32C65.9964 174.693 65.7964 174.247 65.3964 173.98C65.1564 173.807 65.0364 173.633 65.0364 173.46C65.0364 173.327 65.0764 173.213 65.1564 173.12ZM69.1764 180.26C69.7497 180.833 70.3897 181.12 71.0964 181.12C71.1097 181.12 71.1231 181.12 71.1364 181.12C71.8831 181.12 72.4431 180.807 72.8164 180.18C73.2031 179.553 73.3964 178.787 73.3964 177.88C73.3964 176.6 73.1364 175.58 72.6164 174.82C72.1097 174.047 71.4697 173.66 70.6964 173.66C69.9631 173.66 69.3764 173.96 68.9364 174.56C68.4964 175.147 68.2764 175.827 68.2764 176.6V177.96C68.2897 178.907 68.5897 179.673 69.1764 180.26ZM78.4491 173.72C79.4357 172.707 80.6491 172.2 82.0891 172.2C83.1957 172.2 84.1024 172.487 84.8091 173.06C85.5157 173.633 85.9557 174.367 86.1291 175.26C86.1424 175.313 86.1491 175.367 86.1491 175.42C86.1491 175.727 85.9891 175.94 85.6691 176.06C84.2024 176.673 82.1424 177.447 79.4891 178.38C79.7157 178.98 80.0957 179.493 80.6291 179.92C81.1757 180.347 81.8424 180.56 82.6291 180.56C83.7624 180.56 84.7757 180.1 85.6691 179.18C85.7891 179.06 85.9024 179 86.0091 179C86.0624 179 86.1291 179.027 86.2091 179.08C86.2891 179.133 86.3291 179.227 86.3291 179.36C86.3291 179.427 86.3091 179.513 86.2691 179.62C86.0291 180.247 85.4957 180.833 84.6691 181.38C83.8557 181.927 82.8624 182.2 81.6891 182.2C80.2891 182.2 79.1491 181.76 78.2691 180.88C77.4024 180 76.9691 178.88 76.9691 177.52C76.9691 176.013 77.4624 174.747 78.4491 173.72ZM79.2491 177.38C80.9824 176.807 82.3224 176.327 83.2691 175.94C83.5624 175.833 83.7091 175.647 83.7091 175.38C83.7091 175.327 83.7024 175.267 83.6891 175.2C83.5691 174.613 83.2957 174.153 82.8691 173.82C82.4424 173.473 82.0024 173.3 81.5491 173.3C81.4824 173.3 81.4157 173.307 81.3491 173.32C80.6424 173.36 80.0891 173.66 79.6891 174.22C79.3024 174.767 79.1091 175.407 79.1091 176.14C79.1091 176.673 79.1557 177.087 79.2491 177.38ZM89.0745 173.74C90.0612 172.727 91.2745 172.22 92.7145 172.22C93.9012 172.22 94.8545 172.547 95.5745 173.2C96.3079 173.853 96.6745 174.613 96.6745 175.48C96.6745 175.88 96.5679 176.187 96.3545 176.4C96.1412 176.613 95.8745 176.72 95.5545 176.72C95.2212 176.72 94.9679 176.62 94.7945 176.42C94.6212 176.22 94.4812 175.94 94.3745 175.58C93.9612 174.087 93.2145 173.333 92.1345 173.32C91.4012 173.32 90.8212 173.6 90.3945 174.16C89.9679 174.707 89.7545 175.427 89.7545 176.32C89.7545 177.587 90.0745 178.613 90.7145 179.4C91.3679 180.173 92.2279 180.56 93.2945 180.56C94.2679 180.56 95.2012 180.127 96.0945 179.26C96.2145 179.14 96.3279 179.08 96.4345 179.08C96.5012 179.08 96.5745 179.107 96.6545 179.16C96.7345 179.2 96.7745 179.287 96.7745 179.42C96.7745 179.5 96.7545 179.587 96.7145 179.68C96.4612 180.333 95.9612 180.92 95.2145 181.44C94.4679 181.947 93.5012 182.2 92.3145 182.2C90.8879 182.2 89.7412 181.753 88.8745 180.86C88.0079 179.953 87.5745 178.84 87.5745 177.52C87.5745 176.013 88.0745 174.753 89.0745 173.74ZM98.4033 181.12C98.4966 181.013 98.6033 180.92 98.7233 180.84C98.8566 180.76 98.9699 180.593 99.0633 180.34C99.1699 180.073 99.2233 179.727 99.2233 179.3L99.2033 175.48C99.2033 175.133 99.1499 174.847 99.0433 174.62C98.9499 174.38 98.8433 174.227 98.7233 174.16C98.6033 174.08 98.4899 173.993 98.3833 173.9C98.2899 173.793 98.2433 173.673 98.2433 173.54C98.2433 173.433 98.2833 173.34 98.3633 173.26C98.4433 173.18 98.6033 173.087 98.8433 172.98C99.2433 172.78 99.6699 172.607 100.123 172.46C100.59 172.3 100.903 172.213 101.063 172.2C101.357 172.2 101.503 172.373 101.503 172.72L101.483 175.48V179.3C101.483 179.727 101.53 180.073 101.623 180.34C101.73 180.593 101.837 180.76 101.943 180.84C102.063 180.92 102.17 181.02 102.263 181.14C102.37 181.26 102.423 181.4 102.423 181.56C102.423 181.853 102.15 182 101.603 182H99.1033C98.5299 182 98.2433 181.847 98.2433 181.54C98.2433 181.38 98.2966 181.24 98.4033 181.12ZM98.5833 169.8C98.5966 169.373 98.7966 168.987 99.1833 168.64C99.5699 168.293 99.9633 168.12 100.363 168.12C100.417 168.12 100.463 168.12 100.503 168.12C100.81 168.133 101.063 168.247 101.263 168.46C101.477 168.673 101.583 168.92 101.583 169.2C101.583 169.227 101.583 169.247 101.583 169.26C101.57 169.673 101.363 170.053 100.963 170.4C100.563 170.733 100.157 170.9 99.7433 170.9C99.7033 170.9 99.6699 170.9 99.6433 170.9C99.3099 170.887 99.0499 170.787 98.8633 170.6C98.6766 170.4 98.5833 170.167 98.5833 169.9C98.5833 169.873 98.5833 169.84 98.5833 169.8ZM104.923 176.82C105.709 176.22 106.756 175.92 108.063 175.92C108.636 175.92 109.263 175.987 109.943 176.12C109.823 175.68 109.716 175.347 109.623 175.12C109.543 174.88 109.416 174.633 109.243 174.38C109.083 174.113 108.869 173.927 108.603 173.82C108.336 173.7 108.009 173.64 107.623 173.64C106.849 173.64 105.989 173.907 105.043 174.44C104.949 174.493 104.856 174.52 104.763 174.52C104.683 174.52 104.609 174.493 104.543 174.44C104.489 174.387 104.463 174.313 104.463 174.22C104.463 174.14 104.496 174.04 104.563 173.92C104.843 173.493 105.336 173.107 106.043 172.76C106.749 172.4 107.536 172.22 108.403 172.22C108.976 172.22 109.476 172.307 109.903 172.48C110.329 172.653 110.676 172.907 110.943 173.24C111.209 173.56 111.423 173.9 111.583 174.26C111.743 174.607 111.883 175.013 112.003 175.48L112.963 179.54C113.056 179.953 113.183 180.24 113.343 180.4C113.503 180.547 113.703 180.62 113.943 180.62C113.969 180.62 113.996 180.62 114.023 180.62C114.223 180.62 114.323 180.713 114.323 180.9C114.323 181.193 114.123 181.473 113.723 181.74C113.336 182.007 112.916 182.14 112.463 182.14C112.009 182.14 111.669 182.02 111.443 181.78C111.216 181.527 111.043 181.14 110.923 180.62C110.496 181.127 109.969 181.513 109.343 181.78C108.716 182.047 108.096 182.18 107.483 182.18C106.336 182.18 105.423 181.9 104.743 181.34C104.063 180.767 103.723 180.047 103.723 179.18C103.723 178.22 104.123 177.433 104.923 176.82ZM105.943 178.86C105.969 179.487 106.189 180 106.603 180.4C107.016 180.8 107.563 181 108.243 181C108.869 181 109.423 180.82 109.903 180.46C110.383 180.1 110.623 179.74 110.623 179.38C110.623 179.327 110.616 179.273 110.603 179.22C110.589 179.127 110.449 178.56 110.183 177.52C110.143 177.307 109.929 177.147 109.543 177.04C109.169 176.92 108.789 176.86 108.403 176.86C107.616 176.86 107.009 177.04 106.583 177.4C106.156 177.747 105.943 178.213 105.943 178.8C105.943 178.827 105.943 178.847 105.943 178.86ZM115.453 181.12C115.546 181.013 115.653 180.92 115.773 180.84C115.906 180.76 116.02 180.593 116.113 180.34C116.22 180.073 116.273 179.727 116.273 179.3L116.253 171.08C116.253 170.72 116.2 170.427 116.093 170.2C116 169.973 115.893 169.827 115.773 169.76C115.653 169.68 115.54 169.593 115.433 169.5C115.34 169.393 115.293 169.273 115.293 169.14C115.293 169.02 115.333 168.92 115.413 168.84C115.493 168.76 115.653 168.667 115.893 168.56C116.92 168.08 117.66 167.827 118.113 167.8C118.126 167.8 118.146 167.8 118.173 167.8C118.293 167.8 118.386 167.84 118.453 167.92C118.52 168 118.553 168.133 118.553 168.32L118.533 171.08V179.3C118.533 179.727 118.58 180.073 118.673 180.34C118.78 180.593 118.886 180.76 118.993 180.84C119.113 180.92 119.22 181.02 119.313 181.14C119.42 181.26 119.473 181.4 119.473 181.56C119.473 181.853 119.2 182 118.653 182H116.133C115.573 182 115.293 181.847 115.293 181.54C115.293 181.38 115.346 181.24 115.453 181.12ZM121.313 181.12C121.407 181.013 121.513 180.92 121.633 180.84C121.767 180.76 121.88 180.593 121.973 180.34C122.08 180.073 122.133 179.727 122.133 179.3L122.113 175.48C122.113 175.133 122.06 174.847 121.953 174.62C121.86 174.38 121.753 174.227 121.633 174.16C121.513 174.08 121.4 173.993 121.293 173.9C121.2 173.793 121.153 173.673 121.153 173.54C121.153 173.433 121.193 173.34 121.273 173.26C121.353 173.18 121.513 173.087 121.753 172.98C122.153 172.78 122.58 172.607 123.033 172.46C123.5 172.3 123.813 172.213 123.973 172.2C124.267 172.2 124.413 172.373 124.413 172.72L124.393 175.48V179.3C124.393 179.727 124.44 180.073 124.533 180.34C124.64 180.593 124.747 180.76 124.853 180.84C124.973 180.92 125.08 181.02 125.173 181.14C125.28 181.26 125.333 181.4 125.333 181.56C125.333 181.853 125.06 182 124.513 182H122.013C121.44 182 121.153 181.847 121.153 181.54C121.153 181.38 121.207 181.24 121.313 181.12ZM121.493 169.8C121.507 169.373 121.707 168.987 122.093 168.64C122.48 168.293 122.873 168.12 123.273 168.12C123.327 168.12 123.373 168.12 123.413 168.12C123.72 168.133 123.973 168.247 124.173 168.46C124.387 168.673 124.493 168.92 124.493 169.2C124.493 169.227 124.493 169.247 124.493 169.26C124.48 169.673 124.273 170.053 123.873 170.4C123.473 170.733 123.067 170.9 122.653 170.9C122.613 170.9 122.58 170.9 122.553 170.9C122.22 170.887 121.96 170.787 121.773 170.6C121.587 170.4 121.493 170.167 121.493 169.9C121.493 169.873 121.493 169.84 121.493 169.8ZM127.153 178.72C127.193 178.707 127.239 178.7 127.293 178.7C127.479 178.7 127.726 178.847 128.033 179.14C129.326 180.487 130.539 181.16 131.673 181.16C132.086 181.16 132.426 181.06 132.693 180.86C132.959 180.66 133.093 180.38 133.093 180.02C133.093 179.66 132.873 179.333 132.433 179.04C131.993 178.747 131.299 178.4 130.353 178C129.846 177.787 129.439 177.607 129.133 177.46C128.839 177.3 128.519 177.1 128.173 176.86C127.826 176.607 127.573 176.327 127.413 176.02C127.253 175.7 127.173 175.34 127.173 174.94C127.173 174.06 127.499 173.387 128.153 172.92C128.806 172.44 129.559 172.2 130.413 172.2C130.839 172.2 131.299 172.247 131.793 172.34C132.299 172.42 132.613 172.46 132.733 172.46C132.746 172.46 132.766 172.46 132.793 172.46C132.899 172.46 133.013 172.42 133.133 172.34C133.266 172.247 133.379 172.2 133.473 172.2C133.606 172.2 133.713 172.253 133.793 172.36C133.886 172.453 134.013 172.64 134.173 172.92C134.386 173.32 134.579 173.733 134.753 174.16C134.819 174.333 134.853 174.487 134.853 174.62C134.853 174.793 134.786 174.913 134.653 174.98C134.599 175.007 134.559 175.027 134.533 175.04C134.506 175.04 134.486 175.04 134.473 175.04C134.433 175.04 134.386 175.033 134.333 175.02C134.293 174.993 134.246 174.973 134.193 174.96C134.153 174.933 134.093 174.893 134.013 174.84C133.946 174.787 133.886 174.74 133.833 174.7L133.593 174.52C133.486 174.44 133.399 174.373 133.333 174.32C132.306 173.587 131.413 173.22 130.653 173.22C130.199 173.22 129.839 173.327 129.573 173.54C129.319 173.74 129.193 173.993 129.193 174.3C129.193 174.66 129.386 174.973 129.773 175.24C130.159 175.507 130.839 175.84 131.813 176.24C132.986 176.72 133.859 177.187 134.433 177.64C135.006 178.093 135.293 178.66 135.293 179.34C135.293 180.153 134.939 180.833 134.233 181.38C133.539 181.927 132.659 182.2 131.593 182.2C131.033 182.2 130.486 182.133 129.953 182C129.433 181.867 129.146 181.8 129.093 181.8C128.999 181.8 128.879 181.867 128.733 182C128.586 182.133 128.446 182.2 128.313 182.2C128.166 182.2 128.053 182.153 127.973 182.06C127.893 181.967 127.786 181.767 127.653 181.46C127.293 180.487 127.053 179.787 126.933 179.36C126.906 179.267 126.893 179.187 126.893 179.12C126.893 178.907 126.979 178.773 127.153 178.72ZM136.297 173.04C136.297 172.84 136.377 172.653 136.537 172.48C137.23 171.733 138.01 171.067 138.877 170.48C139.117 170.32 139.33 170.24 139.517 170.24C139.757 170.24 139.877 170.38 139.877 170.66C139.877 170.7 139.877 170.733 139.877 170.76C139.85 171.147 139.823 171.693 139.797 172.4H141.797C141.93 172.4 142.037 172.413 142.117 172.44C142.197 172.453 142.257 172.5 142.297 172.58C142.337 172.647 142.357 172.727 142.357 172.82C142.357 172.873 142.35 172.933 142.337 173C142.257 173.4 142.01 173.6 141.597 173.6C141.57 173.6 141.543 173.6 141.517 173.6L139.777 173.54C139.777 173.82 139.77 174.487 139.757 175.54C139.743 176.593 139.73 177.54 139.717 178.38C139.717 178.433 139.717 178.487 139.717 178.54C139.717 179.26 139.797 179.78 139.957 180.1C140.13 180.42 140.463 180.58 140.957 180.58C141.45 180.58 141.943 180.373 142.437 179.96C142.53 179.88 142.623 179.84 142.717 179.84C142.77 179.84 142.83 179.867 142.897 179.92C142.977 179.973 143.017 180.053 143.017 180.16C143.017 180.213 143.003 180.273 142.977 180.34C142.79 180.807 142.443 181.233 141.937 181.62C141.443 182.007 140.837 182.2 140.117 182.2C139.263 182.2 138.61 181.947 138.157 181.44C137.717 180.92 137.497 180.173 137.497 179.2V178.38C137.497 176.127 137.523 174.493 137.577 173.48H136.917C136.503 173.48 136.297 173.333 136.297 173.04ZM145.098 176.82C145.885 176.22 146.932 175.92 148.238 175.92C148.812 175.92 149.438 175.987 150.118 176.12C149.998 175.68 149.892 175.347 149.798 175.12C149.718 174.88 149.592 174.633 149.418 174.38C149.258 174.113 149.045 173.927 148.778 173.82C148.512 173.7 148.185 173.64 147.798 173.64C147.025 173.64 146.165 173.907 145.218 174.44C145.125 174.493 145.032 174.52 144.938 174.52C144.858 174.52 144.785 174.493 144.718 174.44C144.665 174.387 144.638 174.313 144.638 174.22C144.638 174.14 144.672 174.04 144.738 173.92C145.018 173.493 145.512 173.107 146.218 172.76C146.925 172.4 147.712 172.22 148.578 172.22C149.152 172.22 149.652 172.307 150.078 172.48C150.505 172.653 150.852 172.907 151.118 173.24C151.385 173.56 151.598 173.9 151.758 174.26C151.918 174.607 152.058 175.013 152.178 175.48L153.138 179.54C153.232 179.953 153.358 180.24 153.518 180.4C153.678 180.547 153.878 180.62 154.118 180.62C154.145 180.62 154.172 180.62 154.198 180.62C154.398 180.62 154.498 180.713 154.498 180.9C154.498 181.193 154.298 181.473 153.898 181.74C153.512 182.007 153.092 182.14 152.638 182.14C152.185 182.14 151.845 182.02 151.618 181.78C151.392 181.527 151.218 181.14 151.098 180.62C150.672 181.127 150.145 181.513 149.518 181.78C148.892 182.047 148.272 182.18 147.658 182.18C146.512 182.18 145.598 181.9 144.918 181.34C144.238 180.767 143.898 180.047 143.898 179.18C143.898 178.22 144.298 177.433 145.098 176.82ZM146.118 178.86C146.145 179.487 146.365 180 146.778 180.4C147.192 180.8 147.738 181 148.418 181C149.045 181 149.598 180.82 150.078 180.46C150.558 180.1 150.798 179.74 150.798 179.38C150.798 179.327 150.792 179.273 150.778 179.22C150.765 179.127 150.625 178.56 150.358 177.52C150.318 177.307 150.105 177.147 149.718 177.04C149.345 176.92 148.965 176.86 148.578 176.86C147.792 176.86 147.185 177.04 146.758 177.4C146.332 177.747 146.118 178.213 146.118 178.8C146.118 178.827 146.118 178.847 146.118 178.86ZM160.793 173.72C161.779 172.707 162.993 172.2 164.433 172.2C165.539 172.2 166.446 172.487 167.153 173.06C167.859 173.633 168.299 174.367 168.473 175.26C168.486 175.313 168.493 175.367 168.493 175.42C168.493 175.727 168.333 175.94 168.013 176.06C166.546 176.673 164.486 177.447 161.833 178.38C162.059 178.98 162.439 179.493 162.973 179.92C163.519 180.347 164.186 180.56 164.973 180.56C166.106 180.56 167.119 180.1 168.013 179.18C168.133 179.06 168.246 179 168.353 179C168.406 179 168.473 179.027 168.553 179.08C168.633 179.133 168.673 179.227 168.673 179.36C168.673 179.427 168.653 179.513 168.613 179.62C168.373 180.247 167.839 180.833 167.013 181.38C166.199 181.927 165.206 182.2 164.033 182.2C162.633 182.2 161.493 181.76 160.613 180.88C159.746 180 159.313 178.88 159.313 177.52C159.313 176.013 159.806 174.747 160.793 173.72ZM161.593 177.38C163.326 176.807 164.666 176.327 165.613 175.94C165.906 175.833 166.053 175.647 166.053 175.38C166.053 175.327 166.046 175.267 166.033 175.2C165.913 174.613 165.639 174.153 165.213 173.82C164.786 173.473 164.346 173.3 163.893 173.3C163.826 173.3 163.759 173.307 163.693 173.32C162.986 173.36 162.433 173.66 162.033 174.22C161.646 174.767 161.453 175.407 161.453 176.14C161.453 176.673 161.499 177.087 161.593 177.38ZM170.258 181.12C170.352 181.013 170.458 180.92 170.578 180.84C170.712 180.76 170.825 180.593 170.918 180.34C171.025 180.073 171.078 179.727 171.078 179.3V175.38C171.078 174.74 170.872 174.287 170.458 174.02C170.218 173.847 170.098 173.673 170.098 173.5C170.098 173.367 170.138 173.26 170.218 173.18C170.298 173.087 170.458 172.987 170.698 172.88C171.592 172.48 172.252 172.267 172.678 172.24C172.958 172.24 173.098 172.413 173.098 172.76L173.078 174.3C173.878 172.9 175.032 172.2 176.538 172.2C178.152 172.2 179.205 172.907 179.698 174.32C180.072 173.627 180.558 173.1 181.158 172.74C181.758 172.38 182.412 172.2 183.118 172.2C184.172 172.2 184.952 172.52 185.458 173.16C185.978 173.8 186.372 174.867 186.638 176.36L187.298 179.82C187.365 180.167 187.485 180.44 187.658 180.64C187.845 180.84 188.005 181 188.138 181.12C188.285 181.24 188.358 181.387 188.358 181.56C188.358 181.853 188.078 182 187.518 182H185.058C184.498 182 184.218 181.847 184.218 181.54C184.218 181.38 184.298 181.24 184.458 181.12C184.632 180.987 184.772 180.833 184.878 180.66C184.998 180.473 185.058 180.273 185.058 180.06C185.058 179.953 185.045 179.84 185.018 179.72L184.418 176.48C184.352 176.093 184.298 175.807 184.258 175.62C184.218 175.433 184.145 175.193 184.038 174.9C183.932 174.593 183.812 174.373 183.678 174.24C183.545 174.093 183.365 173.967 183.138 173.86C182.912 173.74 182.645 173.68 182.338 173.68C181.725 173.693 181.185 173.96 180.718 174.48C180.265 175 180.025 175.733 179.998 176.68L180.018 179.3C180.018 179.727 180.065 180.073 180.158 180.34C180.265 180.593 180.372 180.76 180.478 180.84C180.598 180.92 180.705 181.02 180.798 181.14C180.905 181.26 180.958 181.4 180.958 181.56C180.958 181.853 180.685 182 180.138 182H177.638C177.065 182 176.778 181.847 176.778 181.54C176.778 181.38 176.825 181.247 176.918 181.14C177.025 181.02 177.138 180.92 177.258 180.84C177.392 180.76 177.505 180.593 177.598 180.34C177.705 180.073 177.758 179.727 177.758 179.3V176.6C177.758 175.667 177.618 174.94 177.338 174.42C177.058 173.9 176.565 173.64 175.858 173.64C175.832 173.64 175.812 173.64 175.798 173.64C175.132 173.64 174.552 173.927 174.058 174.5C173.578 175.06 173.338 175.84 173.338 176.84V179.3C173.338 179.727 173.385 180.073 173.478 180.34C173.585 180.593 173.692 180.76 173.798 180.84C173.918 180.92 174.025 181.02 174.118 181.14C174.225 181.26 174.278 181.4 174.278 181.56C174.278 181.853 174.005 182 173.458 182H170.938C170.378 182 170.098 181.847 170.098 181.54C170.098 181.38 170.152 181.24 170.258 181.12ZM194.68 173.74C195.667 172.727 196.88 172.22 198.32 172.22C199.507 172.22 200.46 172.547 201.18 173.2C201.913 173.853 202.28 174.613 202.28 175.48C202.28 175.88 202.173 176.187 201.96 176.4C201.747 176.613 201.48 176.72 201.16 176.72C200.827 176.72 200.573 176.62 200.4 176.42C200.227 176.22 200.087 175.94 199.98 175.58C199.567 174.087 198.82 173.333 197.74 173.32C197.007 173.32 196.427 173.6 196 174.16C195.573 174.707 195.36 175.427 195.36 176.32C195.36 177.587 195.68 178.613 196.32 179.4C196.973 180.173 197.833 180.56 198.9 180.56C199.873 180.56 200.807 180.127 201.7 179.26C201.82 179.14 201.933 179.08 202.04 179.08C202.107 179.08 202.18 179.107 202.26 179.16C202.34 179.2 202.38 179.287 202.38 179.42C202.38 179.5 202.36 179.587 202.32 179.68C202.067 180.333 201.567 180.92 200.82 181.44C200.073 181.947 199.107 182.2 197.92 182.2C196.493 182.2 195.347 181.753 194.48 180.86C193.613 179.953 193.18 178.84 193.18 177.52C193.18 176.013 193.68 174.753 194.68 173.74ZM204.669 176.82C205.455 176.22 206.502 175.92 207.809 175.92C208.382 175.92 209.009 175.987 209.689 176.12C209.569 175.68 209.462 175.347 209.369 175.12C209.289 174.88 209.162 174.633 208.989 174.38C208.829 174.113 208.615 173.927 208.349 173.82C208.082 173.7 207.755 173.64 207.369 173.64C206.595 173.64 205.735 173.907 204.789 174.44C204.695 174.493 204.602 174.52 204.509 174.52C204.429 174.52 204.355 174.493 204.289 174.44C204.235 174.387 204.209 174.313 204.209 174.22C204.209 174.14 204.242 174.04 204.309 173.92C204.589 173.493 205.082 173.107 205.789 172.76C206.495 172.4 207.282 172.22 208.149 172.22C208.722 172.22 209.222 172.307 209.649 172.48C210.075 172.653 210.422 172.907 210.689 173.24C210.955 173.56 211.169 173.9 211.329 174.26C211.489 174.607 211.629 175.013 211.749 175.48L212.709 179.54C212.802 179.953 212.929 180.24 213.089 180.4C213.249 180.547 213.449 180.62 213.689 180.62C213.715 180.62 213.742 180.62 213.769 180.62C213.969 180.62 214.069 180.713 214.069 180.9C214.069 181.193 213.869 181.473 213.469 181.74C213.082 182.007 212.662 182.14 212.209 182.14C211.755 182.14 211.415 182.02 211.189 181.78C210.962 181.527 210.789 181.14 210.669 180.62C210.242 181.127 209.715 181.513 209.089 181.78C208.462 182.047 207.842 182.18 207.229 182.18C206.082 182.18 205.169 181.9 204.489 181.34C203.809 180.767 203.469 180.047 203.469 179.18C203.469 178.22 203.869 177.433 204.669 176.82ZM205.689 178.86C205.715 179.487 205.935 180 206.349 180.4C206.762 180.8 207.309 181 207.989 181C208.615 181 209.169 180.82 209.649 180.46C210.129 180.1 210.369 179.74 210.369 179.38C210.369 179.327 210.362 179.273 210.349 179.22C210.335 179.127 210.195 178.56 209.929 177.52C209.889 177.307 209.675 177.147 209.289 177.04C208.915 176.92 208.535 176.86 208.149 176.86C207.362 176.86 206.755 177.04 206.329 177.4C205.902 177.747 205.689 178.213 205.689 178.8C205.689 178.827 205.689 178.847 205.689 178.86ZM216.184 173.74C217.171 172.727 218.384 172.22 219.824 172.22C221.011 172.22 221.964 172.547 222.684 173.2C223.417 173.853 223.784 174.613 223.784 175.48C223.784 175.88 223.677 176.187 223.464 176.4C223.251 176.613 222.984 176.72 222.664 176.72C222.331 176.72 222.077 176.62 221.904 176.42C221.731 176.22 221.591 175.94 221.484 175.58C221.071 174.087 220.324 173.333 219.244 173.32C218.511 173.32 217.931 173.6 217.504 174.16C217.077 174.707 216.864 175.427 216.864 176.32C216.864 177.587 217.184 178.613 217.824 179.4C218.477 180.173 219.337 180.56 220.404 180.56C221.377 180.56 222.311 180.127 223.204 179.26C223.324 179.14 223.437 179.08 223.544 179.08C223.611 179.08 223.684 179.107 223.764 179.16C223.844 179.2 223.884 179.287 223.884 179.42C223.884 179.5 223.864 179.587 223.824 179.68C223.571 180.333 223.071 180.92 222.324 181.44C221.577 181.947 220.611 182.2 219.424 182.2C217.997 182.2 216.851 181.753 215.984 180.86C215.117 179.953 214.684 178.84 214.684 177.52C214.684 176.013 215.184 174.753 216.184 173.74ZM225.042 168.84C225.122 168.76 225.282 168.667 225.522 168.56C226.549 168.08 227.289 167.827 227.742 167.8C227.755 167.8 227.775 167.8 227.802 167.8C227.922 167.8 228.015 167.84 228.082 167.92C228.149 168 228.182 168.133 228.182 168.32L228.162 171.08V173.84C228.949 172.747 230.002 172.2 231.322 172.2C232.362 172.2 233.155 172.527 233.702 173.18C234.249 173.833 234.655 174.893 234.922 176.36L235.582 179.82C235.649 180.167 235.769 180.44 235.942 180.64C236.115 180.84 236.269 181 236.402 181.12C236.549 181.24 236.622 181.387 236.622 181.56C236.622 181.853 236.349 182 235.802 182H233.342C232.769 182 232.482 181.847 232.482 181.54C232.482 181.407 232.535 181.287 232.642 181.18C232.749 181.06 232.862 180.96 232.982 180.88C233.102 180.8 233.189 180.68 233.242 180.52C233.309 180.36 233.342 180.207 233.342 180.06C233.342 179.953 233.329 179.84 233.302 179.72L232.702 176.48C232.622 176.053 232.542 175.7 232.462 175.42C232.382 175.14 232.262 174.853 232.102 174.56C231.942 174.253 231.729 174.033 231.462 173.9C231.195 173.753 230.875 173.68 230.502 173.68C229.862 173.693 229.309 173.98 228.842 174.54C228.389 175.087 228.162 175.853 228.162 176.84V179.3C228.162 179.727 228.209 180.073 228.302 180.34C228.409 180.593 228.515 180.76 228.622 180.84C228.742 180.92 228.849 181.02 228.942 181.14C229.049 181.26 229.102 181.4 229.102 181.56C229.102 181.853 228.829 182 228.282 182H225.762C225.202 182 224.922 181.847 224.922 181.54C224.922 181.38 224.969 181.247 225.062 181.14C225.169 181.02 225.282 180.92 225.402 180.84C225.535 180.76 225.649 180.593 225.742 180.34C225.849 180.073 225.902 179.727 225.902 179.3L225.882 171.08C225.882 170.72 225.829 170.427 225.722 170.2C225.629 169.973 225.522 169.827 225.402 169.76C225.282 169.68 225.169 169.593 225.062 169.5C224.969 169.393 224.922 169.273 224.922 169.14C224.922 169.02 224.962 168.92 225.042 168.84ZM238.802 173.74C239.815 172.713 241.102 172.2 242.662 172.2C243.995 172.2 245.095 172.653 245.962 173.56C246.842 174.467 247.282 175.593 247.282 176.94C247.282 178.447 246.782 179.7 245.782 180.7C244.782 181.7 243.509 182.2 241.962 182.2C240.602 182.2 239.475 181.78 238.582 180.94C237.702 180.087 237.262 178.96 237.262 177.56C237.262 176.04 237.775 174.767 238.802 173.74ZM240.422 179.7C241.022 180.607 241.782 181.06 242.702 181.06C243.449 181.06 244.029 180.787 244.442 180.24C244.855 179.693 245.062 178.987 245.062 178.12C245.062 176.88 244.755 175.78 244.142 174.82C243.529 173.847 242.769 173.36 241.862 173.36C241.102 173.36 240.515 173.653 240.102 174.24C239.702 174.827 239.502 175.56 239.502 176.44C239.502 177.707 239.809 178.793 240.422 179.7ZM249.028 178.72C249.068 178.707 249.114 178.7 249.168 178.7C249.354 178.7 249.601 178.847 249.908 179.14C251.201 180.487 252.414 181.16 253.548 181.16C253.961 181.16 254.301 181.06 254.568 180.86C254.834 180.66 254.968 180.38 254.968 180.02C254.968 179.66 254.748 179.333 254.308 179.04C253.868 178.747 253.174 178.4 252.228 178C251.721 177.787 251.314 177.607 251.008 177.46C250.714 177.3 250.394 177.1 250.048 176.86C249.701 176.607 249.448 176.327 249.288 176.02C249.128 175.7 249.048 175.34 249.048 174.94C249.048 174.06 249.374 173.387 250.028 172.92C250.681 172.44 251.434 172.2 252.288 172.2C252.714 172.2 253.174 172.247 253.668 172.34C254.174 172.42 254.488 172.46 254.608 172.46C254.621 172.46 254.641 172.46 254.668 172.46C254.774 172.46 254.888 172.42 255.008 172.34C255.141 172.247 255.254 172.2 255.348 172.2C255.481 172.2 255.588 172.253 255.668 172.36C255.761 172.453 255.888 172.64 256.048 172.92C256.261 173.32 256.454 173.733 256.628 174.16C256.694 174.333 256.728 174.487 256.728 174.62C256.728 174.793 256.661 174.913 256.528 174.98C256.474 175.007 256.434 175.027 256.408 175.04C256.381 175.04 256.361 175.04 256.348 175.04C256.308 175.04 256.261 175.033 256.208 175.02C256.168 174.993 256.121 174.973 256.068 174.96C256.028 174.933 255.968 174.893 255.888 174.84C255.821 174.787 255.761 174.74 255.708 174.7L255.468 174.52C255.361 174.44 255.274 174.373 255.208 174.32C254.181 173.587 253.288 173.22 252.528 173.22C252.074 173.22 251.714 173.327 251.448 173.54C251.194 173.74 251.068 173.993 251.068 174.3C251.068 174.66 251.261 174.973 251.648 175.24C252.034 175.507 252.714 175.84 253.688 176.24C254.861 176.72 255.734 177.187 256.308 177.64C256.881 178.093 257.168 178.66 257.168 179.34C257.168 180.153 256.814 180.833 256.108 181.38C255.414 181.927 254.534 182.2 253.468 182.2C252.908 182.2 252.361 182.133 251.828 182C251.308 181.867 251.021 181.8 250.968 181.8C250.874 181.8 250.754 181.867 250.608 182C250.461 182.133 250.321 182.2 250.188 182.2C250.041 182.2 249.928 182.153 249.848 182.06C249.768 181.967 249.661 181.767 249.528 181.46C249.168 180.487 248.928 179.787 248.808 179.36C248.781 179.267 248.768 179.187 248.768 179.12C248.768 178.907 248.854 178.773 249.028 178.72Z" fill="white"/>
</svg>
